<?xml version="1.0" encoding="UTF-8"?>
<svg width="1040px" height="720px" viewBox="0 0 1040 720" version="1.1" xmlns="http://www.w3.org/2000/svg" xmlns:xlink="http://www.w3.org/1999/xlink">
    <!-- Generator: Sketch 47.1 (45422) - http://www.bohemiancoding.com/sketch -->
    <title>AND quiz</title>
    <desc>Created with Sketch.</desc>
    <defs></defs>
    <g id="ven-diagram" stroke="none" stroke-width="1" fill="none" fill-rule="evenodd">
        <g id="AND-quiz">
            <g id="Group" transform="translate(175.000000, 144.000000)">
                <circle id="Oval" stroke="#52B1DB" stroke-width="4" cx="205" cy="205" r="205"></circle>
                <circle id="Oval-Copy" stroke="#52B1DB" stroke-width="4" cx="484" cy="205" r="205"></circle>
                <path d="M345,55 C384.999915,92.4732674 410,145.812234 410,205 C410,264.187766 384.999915,317.526733 345,355 C305.000085,317.526733 280,264.187766 280,205 C280,145.812234 305.000085,92.4732674 345,55 Z" id="Combined-Shape" stroke="#52B1DB" stroke-width="4" fill-opacity="0.599999964" fill="#4E768D"></path>
                <path d="M136.527044,487.98329 C134.636268,487.98329 132.950074,487.657458 131.468413,487.005784 C129.986752,486.35411 128.778774,485.44902 127.844443,484.290488 C126.910112,483.131957 126.202464,481.77293 125.721477,480.213368 C125.24049,478.653805 125,476.943882 125,475.083548 C125,472.610527 125.450573,470.418818 126.351733,468.508355 C127.252892,466.597891 128.599083,465.085695 130.390344,463.971722 C132.181606,462.857749 134.299023,462.300771 136.742658,462.300771 C139.429551,462.300771 141.718351,462.868889 143.609127,464.005141 L142.597401,465.659383 C140.872482,464.612248 138.926449,464.088689 136.759244,464.088689 C135.244411,464.088689 133.884399,464.375533 132.679168,464.949229 C131.473936,465.522925 130.487098,466.316619 129.718625,467.330334 C128.950151,468.34405 128.36413,469.519274 127.960543,470.856041 C127.556956,472.192809 127.355166,473.640952 127.355166,475.200514 C127.355166,476.726657 127.540371,478.138597 127.910786,479.436375 C128.281201,480.734154 128.83958,481.892668 129.585939,482.911954 C130.332298,483.931239 131.324665,484.733288 132.563068,485.318123 C133.801471,485.902959 135.227825,486.195373 136.842172,486.195373 C138.578148,486.195373 140.513124,485.710802 142.647158,484.741645 L143.078386,486.462725 C141.464039,487.47644 139.28028,487.98329 136.527044,487.98329 Z M154.340059,486.345758 C155.66692,486.345758 156.786442,485.992077 157.698658,485.284704 C158.610875,484.577332 159.274295,483.644393 159.688939,482.485861 C160.103583,481.327329 160.310902,479.996151 160.310902,478.492288 C160.310902,476.130665 159.813337,474.23137 158.818191,472.794344 C157.823046,471.357319 156.308236,470.638817 154.273716,470.638817 C152.946856,470.638817 151.816277,470.998068 150.881946,471.716581 C149.947615,472.435094 149.264845,473.376387 148.833615,474.540488 C148.402385,475.70459 148.186774,477.038553 148.186774,478.542416 C148.186774,480.826061 148.714746,482.697508 149.770706,484.156812 C150.826666,485.616117 152.349768,486.345758 154.340059,486.345758 Z M154.190788,488 C152.543269,488 151.092037,487.582266 149.837048,486.746787 C148.582059,485.911307 147.625628,484.777856 146.967727,483.346401 C146.309825,481.914946 145.980879,480.296924 145.980879,478.492288 C145.980879,477.133241 146.171612,475.871685 146.553085,474.707584 C146.934557,473.543482 147.479115,472.535351 148.186774,471.683162 C148.894433,470.830973 149.773465,470.162599 150.823896,469.678021 C151.874327,469.193442 153.040842,468.951157 154.323473,468.951157 C156.026278,468.951157 157.502388,469.371675 158.751849,470.212725 C160.001309,471.053775 160.93839,472.18444 161.563121,473.604756 C162.187851,475.025071 162.500211,476.643093 162.500211,478.458869 C162.500211,480.285785 162.179558,481.912161 161.538242,483.338046 C160.896926,484.763932 159.940495,485.897382 158.66892,486.738432 C157.397346,487.579481 155.90465,488 154.190788,488 Z M166.547116,487.598972 L166.547116,469.285347 L168.338369,469.285347 L168.620325,472.109254 C169.272699,471.128958 170.148966,470.357544 171.249155,469.794987 C172.349343,469.232431 173.535207,468.951157 174.806782,468.951157 C176.896588,468.951157 178.433512,469.530414 179.4176,470.688946 C180.401688,471.847478 180.893725,473.696645 180.893725,476.236504 L180.893725,487.598972 L178.820516,487.598972 L178.820516,475.300771 C178.76523,473.674371 178.422462,472.504717 177.792204,471.791774 C177.161945,471.078831 176.128115,470.722365 174.690682,470.722365 C173.043164,470.722365 171.696973,471.140099 170.652071,471.975578 C169.607168,472.811058 168.95204,473.891596 168.686668,475.217224 C168.642439,475.740791 168.620325,476.28663 168.620325,476.854756 L168.620325,487.598972 L166.547116,487.598972 Z M192.520283,487.98329 C190.098762,487.98329 188.210779,487.136684 186.856275,485.443445 C185.501772,483.750206 184.82453,481.410898 184.82453,478.42545 C184.82453,475.618238 185.523886,473.337412 186.922618,471.582905 C188.32135,469.828397 190.165106,468.951157 192.45394,468.951157 C193.581772,468.951157 194.709587,469.196227 195.837418,469.686375 C196.96525,470.176523 197.822168,470.939584 198.408198,471.975578 L198.408198,462.183805 L200.398479,462 L200.398479,487.598972 L198.690154,487.598972 L198.391612,484.841902 C197.761353,485.877897 196.9072,486.660452 195.829125,487.189589 C194.751051,487.718726 193.648115,487.98329 192.520283,487.98329 Z M192.470526,486.345758 C193.498843,486.345758 194.399989,486.156386 195.173991,485.777635 C195.947993,485.398884 196.567186,484.864185 197.031587,484.173522 C197.495988,483.482859 197.841519,482.689165 198.068191,481.792416 C198.294863,480.895668 198.408198,479.901462 198.408198,478.809769 C198.408198,473.362441 196.417937,470.638817 192.437355,470.638817 C191.497495,470.638817 190.66822,470.864394 189.949503,471.315553 C189.230787,471.766712 188.664116,472.373818 188.249472,473.136889 C187.834828,473.899961 187.527996,474.729858 187.328967,475.626607 C187.129938,476.523355 187.030425,477.467433 187.030425,478.458869 C187.030425,479.316628 187.091238,480.121462 187.212867,480.873393 C187.334496,481.625325 187.533522,482.341042 187.809951,483.020566 C188.086381,483.700089 188.429148,484.282131 188.838263,484.76671 C189.247379,485.251288 189.761529,485.635603 190.380731,485.919666 C190.999933,486.203729 191.696524,486.345758 192.470526,486.345758 Z M205.490281,487.598972 L205.490281,469.285347 L207.56349,469.285347 L207.56349,487.598972 L205.490281,487.598972 Z M205.490281,465.542416 L205.490281,462.735219 L207.546905,462.735219 L207.546905,465.542416 L205.490281,465.542416 Z M217.780266,487.98329 C216.254376,487.98329 215.137619,487.635179 214.42996,486.938946 C213.722301,486.242713 213.368477,485.109262 213.368477,483.53856 L213.368477,470.805913 L210.797697,470.805913 L210.946968,469.552699 L213.401648,469.318766 L213.948975,465.124679 L215.391929,465.024422 L215.391929,469.285347 L220.699345,469.285347 L220.699345,470.805913 L215.391929,470.805913 L215.391929,483.104113 C215.391929,484.396322 215.602012,485.262423 216.022185,485.702442 C216.442357,486.142461 217.183177,486.362468 218.244665,486.362468 C218.93021,486.362468 219.781599,486.234363 220.798859,485.978149 L220.881787,487.582262 C219.54387,487.849616 218.51004,487.98329 217.780266,487.98329 Z M224.082823,487.598972 L224.082823,469.285347 L226.156032,469.285347 L226.156032,487.598972 L224.082823,487.598972 Z M224.082823,465.542416 L224.082823,462.735219 L226.139446,462.735219 L226.139446,465.542416 L224.082823,465.542416 Z M238.777731,486.345758 C240.104591,486.345758 241.224113,485.992077 242.13633,485.284704 C243.048547,484.577332 243.711967,483.644393 244.126611,482.485861 C244.541255,481.327329 244.748574,479.996151 244.748574,478.492288 C244.748574,476.130665 244.251009,474.23137 243.255863,472.794344 C242.260718,471.357319 240.745908,470.638817 238.711388,470.638817 C237.384527,470.638817 236.253949,470.998068 235.319618,471.716581 C234.385287,472.435094 233.702516,473.376387 233.271287,474.540488 C232.840057,475.70459 232.624445,477.038553 232.624445,478.542416 C232.624445,480.826061 233.152417,482.697508 234.208377,484.156812 C235.264337,485.616117 236.78744,486.345758 238.777731,486.345758 Z M238.62846,488 C236.980941,488 235.529709,487.582266 234.27472,486.746787 C233.019731,485.911307 232.0633,484.777856 231.405398,483.346401 C230.747497,481.914946 230.418551,480.296924 230.418551,478.492288 C230.418551,477.133241 230.609284,475.871685 230.990756,474.707584 C231.372229,473.543482 231.916786,472.535351 232.624445,471.683162 C233.332104,470.830973 234.211136,470.162599 235.261568,469.678021 C236.311999,469.193442 237.478513,468.951157 238.761145,468.951157 C240.46395,468.951157 241.94006,469.371675 243.18952,470.212725 C244.438981,471.053775 245.376062,472.18444 246.000792,473.604756 C246.625523,475.025071 246.937883,476.643093 246.937883,478.458869 C246.937883,480.285785 246.61723,481.912161 245.975914,483.338046 C245.334598,484.763932 244.378167,485.897382 243.106592,486.738432 C241.835017,487.579481 240.342321,488 238.62846,488 Z M250.984788,487.598972 L250.984788,469.285347 L252.776041,469.285347 L253.057997,472.109254 C253.71037,471.128958 254.586638,470.357544 255.686827,469.794987 C256.787015,469.232431 257.972879,468.951157 259.244454,468.951157 C261.334259,468.951157 262.871183,469.530414 263.855271,470.688946 C264.83936,471.847478 265.331397,473.696645 265.331397,476.236504 L265.331397,487.598972 L263.258187,487.598972 L263.258187,475.300771 C263.202901,473.674371 262.860134,472.504717 262.229875,471.791774 C261.599617,471.078831 260.565786,470.722365 259.128354,470.722365 C257.480835,470.722365 256.134645,471.140099 255.089742,471.975578 C254.044839,472.811058 253.389712,473.891596 253.12434,475.217224 C253.080111,475.740791 253.057997,476.28663 253.057997,476.854756 L253.057997,487.598972 L250.984788,487.598972 Z M279.877034,487.598972 L279.877034,464.940874 C279.523204,465.197088 278.962061,465.514565 278.193588,465.893316 C277.425114,466.272067 276.659416,466.595114 275.896472,466.862468 L275.896472,465.057841 C278.218478,463.977287 279.672474,463.203087 280.258504,462.735219 L282,462.735219 L282,487.598972 L279.877034,487.598972 Z" id="Condition-1" fill="#FFFFFF"></path>
                <path d="M411.549905,487.98329 C409.655379,487.98329 407.965842,487.657458 406.481242,487.005784 C404.996642,486.35411 403.786269,485.44902 402.850085,484.290488 C401.913901,483.131957 401.204849,481.77293 400.722908,480.213368 C400.240967,478.653805 400,476.943882 400,475.083548 C400,472.610527 400.451467,470.418818 401.354413,468.508355 C402.25736,466.597891 403.606221,465.085695 405.401035,463.971722 C407.195849,462.857749 409.317465,462.300771 411.765947,462.300771 C414.458169,462.300771 416.751508,462.868889 418.646034,464.005141 L417.632302,465.659383 C415.903962,464.612248 413.954069,464.088689 411.782565,464.088689 C410.264729,464.088689 408.90202,464.375533 407.694397,464.949229 C406.486775,465.522925 405.49798,466.316619 404.727983,467.330334 C403.957985,468.34405 403.370802,469.519274 402.966415,470.856041 C402.562027,472.192809 402.359837,473.640952 402.359837,475.200514 C402.359837,476.726657 402.545409,478.138597 402.916559,479.436375 C403.287709,480.734154 403.847195,481.892668 404.595034,482.911954 C405.342874,483.931239 406.337208,484.733288 407.578067,485.318123 C408.818927,485.902959 410.248109,486.195373 411.865658,486.195373 C413.605077,486.195373 415.543891,485.710802 417.682157,484.741645 L418.11424,486.462725 C416.496691,487.47644 414.308602,487.98329 411.549905,487.98329 Z M429.398249,486.345758 C430.727741,486.345758 431.849483,485.992077 432.763509,485.284704 C433.677535,484.577332 434.342271,483.644393 434.757737,482.485861 C435.173203,481.327329 435.380933,479.996151 435.380933,478.492288 C435.380933,476.130665 434.882381,474.23137 433.885262,472.794344 C432.888143,471.357319 431.370329,470.638817 429.331774,470.638817 C428.002282,470.638817 426.869461,470.998068 425.933277,471.716581 C424.997093,472.435094 424.312969,473.376387 423.880884,474.540488 C423.448799,475.70459 423.232759,477.038553 423.232759,478.542416 C423.232759,480.826061 423.761779,482.697508 424.819833,484.156812 C425.877887,485.616117 427.40401,486.345758 429.398249,486.345758 Z M429.248681,488 C427.597895,488 426.143785,487.582266 424.886307,486.746787 C423.628829,485.911307 422.670501,484.777856 422.011295,483.346401 C421.352088,481.914946 421.02249,480.296924 421.02249,478.492288 C421.02249,477.133241 421.213601,475.871685 421.59583,474.707584 C421.978059,473.543482 422.523697,472.535351 423.232759,471.683162 C423.941822,470.830973 424.822597,470.162599 425.875112,469.678021 C426.927627,469.193442 428.096454,468.951157 429.38163,468.951157 C431.087812,468.951157 432.566849,469.371675 433.818788,470.212725 C435.070726,471.053775 436.009666,472.18444 436.635635,473.604756 C437.261605,475.025071 437.574585,476.643093 437.574585,478.458869 C437.574585,480.285785 437.253295,481.912161 436.610708,483.338046 C435.96812,484.763932 435.009792,485.897382 433.735695,486.738432 C432.461598,487.579481 430.965942,488 429.248681,488 Z M441.629515,487.598972 L441.629515,469.285347 L443.424321,469.285347 L443.706837,472.109254 C444.360503,471.128958 445.238509,470.357544 446.34088,469.794987 C447.44325,469.232431 448.631466,468.951157 449.905563,468.951157 C451.999513,468.951157 453.539485,469.530414 454.525525,470.688946 C455.511565,471.847478 456.004578,473.696645 456.004578,476.236504 L456.004578,487.598972 L453.927256,487.598972 L453.927256,475.300771 C453.871861,473.674371 453.528414,472.504717 452.896905,471.791774 C452.265396,471.078831 451.229516,470.722365 449.789233,470.722365 C448.138447,470.722365 446.789586,471.140099 445.742611,471.975578 C444.695636,472.811058 444.039209,473.891596 443.773311,475.217224 C443.728994,475.740791 443.706837,476.28663 443.706837,476.854756 L443.706837,487.598972 L441.629515,487.598972 Z M467.654194,487.98329 C465.227871,487.98329 463.336143,487.136684 461.978953,485.443445 C460.621763,483.750206 459.943178,481.410898 459.943178,478.42545 C459.943178,475.618238 460.643921,473.337412 462.045427,471.582905 C463.446934,469.828397 465.294346,468.951157 467.58772,468.951157 C468.717789,468.951157 469.84784,469.196227 470.977908,469.686375 C472.107977,470.176523 472.966594,470.939584 473.553786,471.975578 L473.553786,462.183805 L475.548015,462 L475.548015,487.598972 L473.836302,487.598972 L473.537168,484.841902 C472.905659,485.877897 472.049811,486.660452 470.969599,487.189589 C469.889387,487.718726 468.784263,487.98329 467.654194,487.98329 Z M467.604339,486.345758 C468.634695,486.345758 469.537628,486.156386 470.313165,485.777635 C471.088703,485.398884 471.709123,484.864185 472.174445,484.173522 C472.639767,483.482859 472.985984,482.689165 473.213106,481.792416 C473.440227,480.895668 473.553786,479.901462 473.553786,478.809769 C473.553786,473.362441 471.559578,470.638817 467.571102,470.638817 C466.629378,470.638817 465.798458,470.864394 465.078316,471.315553 C464.358175,471.766712 463.790379,472.373818 463.374913,473.136889 C462.959447,473.899961 462.652006,474.729858 462.452582,475.626607 C462.253159,476.523355 462.153448,477.467433 462.153448,478.458869 C462.153448,479.316628 462.214382,480.121462 462.336252,480.873393 C462.458122,481.625325 462.657543,482.341042 462.934521,483.020566 C463.211498,483.700089 463.554945,484.282131 463.964872,484.76671 C464.374799,485.251288 464.889969,485.635603 465.510399,485.919666 C466.130829,486.203729 466.828802,486.345758 467.604339,486.345758 Z M480.649915,487.598972 L480.649915,469.285347 L482.727237,469.285347 L482.727237,487.598972 L480.649915,487.598972 Z M480.649915,465.542416 L480.649915,462.735219 L482.710618,462.735219 L482.710618,465.542416 L480.649915,465.542416 Z M492.964275,487.98329 C491.435359,487.98329 490.316387,487.635179 489.607324,486.938946 C488.898262,486.242713 488.543736,485.109262 488.543736,483.53856 L488.543736,470.805913 L485.967857,470.805913 L486.117425,469.552699 L488.576973,469.318766 L489.125386,465.124679 L490.571201,465.024422 L490.571201,469.285347 L495.889143,469.285347 L495.889143,470.805913 L490.571201,470.805913 L490.571201,483.104113 C490.571201,484.396322 490.781701,485.262423 491.202707,485.702442 C491.623713,486.142461 492.366001,486.362468 493.429595,486.362468 C494.116499,486.362468 494.969577,486.234363 495.988855,485.978149 L496.071947,487.582262 C494.731376,487.849616 493.695496,487.98329 492.964275,487.98329 Z M499.279331,487.598972 L499.279331,469.285347 L501.356652,469.285347 L501.356652,487.598972 L499.279331,487.598972 Z M499.279331,465.542416 L499.279331,462.735219 L501.340034,462.735219 L501.340034,465.542416 L499.279331,465.542416 Z M514.003383,486.345758 C515.332876,486.345758 516.454618,485.992077 517.368644,485.284704 C518.28267,484.577332 518.947406,483.644393 519.362872,482.485861 C519.778338,481.327329 519.986068,479.996151 519.986068,478.492288 C519.986068,476.130665 519.487516,474.23137 518.490397,472.794344 C517.493278,471.357319 515.975464,470.638817 513.936909,470.638817 C512.607417,470.638817 511.474596,470.998068 510.538412,471.716581 C509.602228,472.435094 508.918103,473.376387 508.486019,474.540488 C508.053934,475.70459 507.837894,477.038553 507.837894,478.542416 C507.837894,480.826061 508.366913,482.697508 509.424968,484.156812 C510.483022,485.616117 512.009145,486.345758 514.003383,486.345758 Z M513.853816,488 C512.20303,488 510.74892,487.582266 509.491442,486.746787 C508.233964,485.911307 507.275636,484.777856 506.616429,483.346401 C505.957223,481.914946 505.627625,480.296924 505.627625,478.492288 C505.627625,477.133241 505.818736,475.871685 506.200965,474.707584 C506.583194,473.543482 507.128832,472.535351 507.837894,471.683162 C508.546957,470.830973 509.427732,470.162599 510.480247,469.678021 C511.532761,469.193442 512.701589,468.951157 513.986765,468.951157 C515.692946,468.951157 517.171984,469.371675 518.423923,470.212725 C519.675861,471.053775 520.614801,472.18444 521.24077,473.604756 C521.866739,475.025071 522.179719,476.643093 522.179719,478.458869 C522.179719,480.285785 521.85843,481.912161 521.215842,483.338046 C520.573254,484.763932 519.614927,485.897382 518.34083,486.738432 C517.066733,487.579481 515.571077,488 513.853816,488 Z M526.23465,487.598972 L526.23465,469.285347 L528.029456,469.285347 L528.311971,472.109254 C528.965638,471.128958 529.843644,470.357544 530.946015,469.794987 C532.048385,469.232431 533.236601,468.951157 534.510698,468.951157 C536.604648,468.951157 538.14462,469.530414 539.13066,470.688946 C540.1167,471.847478 540.609712,473.696645 540.609712,476.236504 L540.609712,487.598972 L538.532391,487.598972 L538.532391,475.300771 C538.476996,473.674371 538.133549,472.504717 537.50204,471.791774 C536.870531,471.078831 535.834651,470.722365 534.394368,470.722365 C532.743581,470.722365 531.394721,471.140099 530.347746,471.975578 C529.300771,472.811058 528.644344,473.891596 528.378446,475.217224 C528.334129,475.740791 528.311971,476.28663 528.311971,476.854756 L528.311971,487.598972 L526.23465,487.598972 Z M552.824361,487.598972 L552.325804,485.476864 L560.950841,475.384319 C562.080909,474.036411 562.922908,472.863972 563.476863,471.866967 C564.030818,470.869961 564.307792,469.898034 564.307792,468.951157 C564.307792,467.369315 563.936647,466.157888 563.194348,465.316838 C562.452048,464.475788 561.344154,464.05527 559.870634,464.05527 C558.818119,464.05527 557.785009,464.214009 556.771271,464.531491 C555.757533,464.848973 554.929383,465.31405 554.286795,465.926735 L553.505722,464.305913 C554.89061,462.969145 557.039923,462.300771 559.953727,462.300771 C562.069835,462.300771 563.739985,462.885598 564.964225,464.05527 C566.188466,465.224942 566.800577,466.762201 566.800577,468.667095 C566.800577,469.948164 566.476518,471.20972 565.828391,472.451799 C565.180263,473.693879 564.113916,475.178226 562.629316,476.904884 L555.15096,485.543702 L567,485.543702 L566.867051,487.598972 L552.824361,487.598972 Z" id="Condition-2" fill="#FFFFFF"></path>
            </g>
        </g>
    </g>
</svg>