<?xml version="1.0" encoding="UTF-8"?>
<svg width="40px" height="40px" viewBox="0 0 40 40" version="1.1" xmlns="http://www.w3.org/2000/svg" xmlns:xlink="http://www.w3.org/1999/xlink">
    <!-- Generator: Sketch 47.1 (45422) - http://www.bohemiancoding.com/sketch -->
    <title>Artboard</title>
    <desc>Created with Sketch.</desc>
    <defs></defs>
    <g id="Page-1" stroke="none" stroke-width="1" fill="none" fill-rule="evenodd">
        <g id="Artboard">
            <g id="bowl">
                <circle id="Oval" fill="#FBCFCF" cx="20" cy="20" r="20"></circle>
                <path d="M17.0328667,13.173925 L17.0068,12.8526917 C16.9033,12.2140583 16.5000333,11.665125 15.9219667,11.3760917 C15.7893333,11.3101583 15.6965667,11.1836583 15.6728,11.0379917 L15.6666667,10.963625 L15.8016,10.6377917 L16.1305,10.3088917 C16.4302667,10.009125 16.4302667,9.523825 16.1305,9.224825 C15.8307333,8.92505833 15.3454333,8.92505833 15.0464333,9.224825 L14.7183,9.55295833 C14.3403333,9.93015833 14.1333333,10.4384583 14.1333333,10.963625 L14.1594,11.283325 C14.2621333,11.9165917 14.6631,12.460925 15.2365667,12.7476583 C15.3730333,12.8166583 15.4688667,12.946225 15.4934,13.0972583 L15.4995333,13.173925 L15.36,13.5104917 L15.0464333,13.824825 C14.7466667,14.123825 14.7466667,14.6098917 15.0464333,14.9088917 C15.3454333,15.2086583 15.8315,15.2086583 16.1305,14.9088917 L16.4448333,14.595325 C16.8243333,14.2150583 17.0328667,13.7021583 17.0328667,13.173925" id="Fill-123" fill="#F65A5A"></path>
                <path d="M21.6328667,13.173925 L21.6068,12.8526917 C21.5033,12.2140583 21.1000333,11.665125 20.5219667,11.3760917 C20.3893333,11.3101583 20.2965667,11.1836583 20.2728,11.0379917 L20.2666667,10.963625 L20.4016,10.6377917 L20.7305,10.3088917 C21.0302667,10.009125 21.0302667,9.523825 20.7305,9.224825 C20.4307333,8.92505833 19.9454333,8.92505833 19.6464333,9.224825 L19.3183,9.55295833 C18.9403333,9.93015833 18.7333333,10.4384583 18.7333333,10.963625 L18.7594,11.283325 C18.8621333,11.9165917 19.2631,12.460925 19.8365667,12.7476583 C19.9730333,12.8166583 20.0688667,12.946225 20.0934,13.0972583 L20.0995333,13.173925 L19.96,13.5104917 L19.6464333,13.824825 C19.3466667,14.123825 19.3466667,14.6098917 19.6464333,14.9088917 C19.9454333,15.2086583 20.4315,15.2086583 20.7305,14.9088917 L21.0448333,14.595325 C21.4243333,14.2150583 21.6328667,13.7021583 21.6328667,13.173925" id="Fill-124" fill="#F65A5A"></path>
                <path d="M26.2328667,13.173925 L26.2068,12.8526917 C26.1033,12.2140583 25.7000333,11.665125 25.1219667,11.3760917 C24.9893333,11.3101583 24.8965667,11.1836583 24.8728,11.0379917 L24.8666667,10.963625 L25.0016,10.6377917 L25.3305,10.3088917 C25.6302667,10.009125 25.6302667,9.523825 25.3305,9.224825 C25.0307333,8.92505833 24.5454333,8.92505833 24.2464333,9.224825 L23.9183,9.55295833 C23.5403333,9.93015833 23.3333333,10.4384583 23.3333333,10.963625 L23.3594,11.283325 C23.4621333,11.9165917 23.8631,12.460925 24.4365667,12.7476583 C24.5730333,12.8166583 24.6688667,12.946225 24.6934,13.0972583 L24.6995333,13.173925 L24.56,13.5104917 L24.2464333,13.824825 C23.9466667,14.123825 23.9466667,14.6098917 24.2464333,14.9088917 C24.5454333,15.2086583 25.0315,15.2086583 25.3305,14.9088917 L25.6448333,14.595325 C26.0243333,14.2150583 26.2328667,13.7021583 26.2328667,13.173925" id="Fill-125" fill="#F65A5A"></path>
                <g id="Group-8" transform="translate(8.000000, 15.900000)" fill="#F65A5A">
                    <path d="M17.7399,11.5214667 C17.7038667,11.5161 17.6709,11.5 17.6333333,11.5 L6.9,11.5 C6.86243333,11.5 6.82946667,11.5161 6.79343333,11.5214667 C3.6432,9.6462 1.53333333,6.20846667 1.53333333,2.2931 L1.53333333,2.3 C9.2,2.3 15.4337667,2.29233333 23,2.29233333 C23.0007667,6.20846667 20.8901333,9.6462 17.7399,11.5214667 L17.7399,11.5214667 Z M16.8666667,13.8 C16.8666667,14.2163 16.5163,14.5659 16.1,14.5666667 L8.43333333,14.5666667 C8.01703333,14.5659 7.66666667,14.2163 7.66666667,13.8 L7.66666667,13.0333333 L16.8666667,13.0333333 L16.8666667,13.8 L16.8666667,13.8 Z M1.4858,0.766666667 C1.4858,0.766666667 0,0.580615234 0,2.23943333 L0,2.3 C0,6.82716667 2.3,10.7862333 6.13333333,12.9099 L6.13333333,13.8 C6.13333333,15.0703667 7.16296667,16.0969333 8.43333333,16.1 L16.1,16.1 C17.3703667,16.0969333 18.4,15.0703667 18.4,13.8 L18.4,12.9099 C22.2333333,10.7862333 24.5325667,6.82716667 24.5333333,2.3 C24.5325667,1.45283333 23.8471667,0.767433333 23,0.766666667 L1.4858,0.766666667 Z" id="Fill-60"></path>
                </g>
            </g>
        </g>
    </g>
</svg>