<?xml version="1.0" encoding="UTF-8"?>
<svg width="40px" height="40px" viewBox="0 0 40 40" version="1.1" xmlns="http://www.w3.org/2000/svg" xmlns:xlink="http://www.w3.org/1999/xlink">
    <!-- Generator: Sketch 47.1 (45422) - http://www.bohemiancoding.com/sketch -->
    <title>Artboard 2</title>
    <desc>Created with Sketch.</desc>
    <defs></defs>
    <g id="Page-1" stroke="none" stroke-width="1" fill="none" fill-rule="evenodd">
        <g id="Artboard-2">
            <g id="carrot-copy">
                <g id="carrot">
                    <circle id="Oval" fill="#94BAD5" cx="20" cy="20" r="20"></circle>
                    <g id="Group-38" transform="translate(9.333333, 9.333333)"></g>
                    <path d="M10.7166417,28.4244544 C11.4729302,26.5487256 13.1960686,23.6055306 15.0118274,20.8748959 C15.2583708,20.5024155 15.5075795,20.1345994 15.7567883,19.7721139 L17.5212394,21.5365651 C17.7817758,21.7964351 18.2035649,21.7964351 18.4634349,21.5365651 C18.7239713,21.2760287 18.7239713,20.8542395 18.4634349,20.5937031 L16.5330668,18.663335 C17.8370815,16.8335832 19.0697984,15.2730302 19.8773946,14.4687656 C20.6576712,13.6891554 21.6771614,13.300683 22.7039813,13.3000167 C23.7308013,13.300683 24.7509579,13.6891554 25.5312344,14.4687656 C26.3108446,15.2490421 26.699317,16.2691987 26.6999833,17.2960187 C26.699317,18.3221722 26.3108446,19.3423288 25.5312344,20.1226054 L23.1750791,17.7671164 C22.9152091,17.50658 22.49342,17.50658 22.2328836,17.7671164 C21.9730135,18.0269865 21.9730135,18.4487756 22.2328836,18.709312 L24.5403965,21.0168249 C23.2223888,22.1296019 21.2280526,23.5935366 19.1251041,24.9881726 C18.3588206,25.4979177 17.5765451,25.9976678 16.8042645,26.47343 L15.6368482,25.3060137 C15.3763118,25.0454773 14.9545227,25.0454773 14.6939863,25.3060137 C14.4341163,25.5658837 14.4341163,25.9876728 14.6939863,26.2482092 L15.6281859,27.1817425 C14.0882892,28.0892887 12.6536732,28.8482425 11.5762119,29.2833583 L11.3276695,29.3339997 C11.1590871,29.3339997 10.9925037,29.2613693 10.865234,29.134766 C10.7386307,29.0074963 10.665334,28.8409129 10.6660003,28.6723305 L10.7166417,28.4244544 L10.7166417,28.4244544 Z M11.3303348,30.6666667 C11.5782109,30.6666667 11.832084,30.6186907 12.0772947,30.5187406 C14.1262702,29.6864901 17.0807929,27.944028 19.8627353,26.0982842 C22.6446777,24.2478761 25.2113943,22.3235049 26.47343,21.0654673 C27.5122439,20.0266533 28.0333167,18.6580043 28.0326503,17.2960187 C28.0326503,16.3871398 27.7961019,15.3303348 27.3336665,14.6640013 L30.0003332,14.6640013 C30.3681493,14.6640013 30.6666667,14.3654839 30.6666667,13.9976678 C30.6666667,13.6298517 30.3681493,13.3313343 30.0003332,13.3313343 L27.6108612,13.3313343 L29.7717808,11.1704148 C30.0316508,10.9105447 30.0316508,10.4887556 29.7717808,10.2282192 C29.5112444,9.96834916 29.0894553,9.96834916 28.8295852,10.2282192 L26.6686657,12.3891388 L26.6686657,9.99966683 C26.6686657,9.63185074 26.3701483,9.33333333 26.0023322,9.33333333 C25.6345161,9.33333333 25.3359987,9.63185074 25.3359987,9.99966683 L25.3359987,12.6663335 C24.6696652,12.2038981 23.6128602,11.9673497 22.7039813,11.9673497 C21.3419957,11.9666833 19.9726803,12.4877561 18.9345327,13.52657 C17.6764951,14.7886057 15.7521239,17.3553223 13.9017158,20.1372647 C12.055972,22.9192071 10.3135099,25.8750625 9.48125937,27.9233716 C9.38130935,28.1692487 9.33333333,28.4244544 9.33333333,28.6723305 C9.34399467,29.7717808 10.2302182,30.6560053 11.3303348,30.6666667 L11.3303348,30.6666667 Z" id="Fill-107" stroke="#214056" stroke-width="0.5" fill="#214056"></path>
                </g>
                <g id="carrot-red">
                    <circle id="Oval" fill="#FBCFCF" cx="20" cy="20" r="20"></circle>
                    <g id="Group-38" transform="translate(9.333333, 9.333333)"></g>
                    <path d="M11.3303348,30.6666667 C11.5782109,30.6666667 11.832084,30.6186907 12.0772947,30.5187406 C14.1262702,29.6864901 17.0807929,27.944028 19.8627353,26.0982842 C22.6446777,24.2478761 25.2113943,22.3235049 26.47343,21.0654673 C27.5122439,20.0266533 28.0333167,18.6580043 28.0326503,17.2960187 C28.0326503,16.3871398 27.7961019,15.3303348 27.3336665,14.6640013 L30.0003332,14.6640013 C30.3681493,14.6640013 30.6666667,14.3654839 30.6666667,13.9976678 C30.6666667,13.6298517 30.3681493,13.3313343 30.0003332,13.3313343 L27.6108612,13.3313343 L29.7717808,11.1704148 C30.0316508,10.9105447 30.0316508,10.4887556 29.7717808,10.2282192 C29.5112444,9.96834916 29.0894553,9.96834916 28.8295852,10.2282192 L26.6686657,12.3891388 L26.6686657,9.99966683 C26.6686657,9.63185074 26.3701483,9.33333333 26.0023322,9.33333333 C25.6345161,9.33333333 25.3359987,9.63185074 25.3359987,9.99966683 L25.3359987,12.6663335 C24.6696652,12.2038981 23.6128602,11.9673497 22.7039813,11.9673497 C21.3419957,11.9666833 19.9726803,12.4877561 18.9345327,13.52657 C17.6764951,14.7886057 15.7521239,17.3553223 13.9017158,20.1372647 C12.055972,22.9192071 10.3135099,25.8750625 9.48125937,27.9233716 C9.38130935,28.1692487 9.33333333,28.4244544 9.33333333,28.6723305 C9.34399467,29.7717808 10.2302182,30.6560053 11.3303348,30.6666667 L11.3303348,30.6666667 Z" id="Fill-107" stroke="#F65A5A" stroke-width="0.5" fill="#F65A5A"></path>
                    <path d="M10.7166417,28.4244544 C11.4729302,26.5487256 13.1960686,23.6055306 15.0118274,20.8748959 C15.2583708,20.5024155 15.5075795,20.1345994 15.7567883,19.7721139 L17.5212394,21.5365651 C17.7817758,21.7964351 18.2035649,21.7964351 18.4634349,21.5365651 C18.7239713,21.2760287 18.7239713,20.8542395 18.4634349,20.5937031 L16.5330668,18.663335 C17.8370815,16.8335832 19.0697984,15.2730302 19.8773946,14.4687656 C20.6576712,13.6891554 21.6771614,13.300683 22.7039813,13.3000167 C23.7308013,13.300683 24.7509579,13.6891554 25.5312344,14.4687656 C26.3108446,15.2490421 26.699317,16.2691987 26.6999833,17.2960187 C26.699317,18.3221722 26.3108446,19.3423288 25.5312344,20.1226054 L23.1750791,17.7671164 C22.9152091,17.50658 22.49342,17.50658 22.2328836,17.7671164 C21.9730135,18.0269865 21.9730135,18.4487756 22.2328836,18.709312 L24.5403965,21.0168249 C23.2223888,22.1296019 21.2280526,23.5935366 19.1251041,24.9881726 C18.3588206,25.4979177 17.5765451,25.9976678 16.8042645,26.47343 L15.6368482,25.3060137 C15.3763118,25.0454773 14.9545227,25.0454773 14.6939863,25.3060137 C14.4341163,25.5658837 14.4341163,25.9876728 14.6939863,26.2482092 L15.6281859,27.1817425 C14.0882892,28.0892887 12.6536732,28.8482425 11.5762119,29.2833583 L11.3276695,29.3339997 C11.1590871,29.3339997 10.9925037,29.2613693 10.865234,29.134766 C10.7386307,29.0074963 10.665334,28.8409129 10.6660003,28.6723305 L10.7166417,28.4244544 L10.7166417,28.4244544 Z" id="Path" fill="#FBCFCF"></path>
                </g>
            </g>
        </g>
    </g>
</svg>