<?xml version="1.0" encoding="UTF-8"?>
<svg width="1040px" height="720px" viewBox="0 0 1040 720" version="1.1" xmlns="http://www.w3.org/2000/svg" xmlns:xlink="http://www.w3.org/1999/xlink">
    <!-- Generator: Sketch 49.1 (51147) - http://www.bohemiancoding.com/sketch -->
    <title>OR diagram v2</title>
    <desc>Created with Sketch.</desc>
    <defs></defs>
    <g id="OR-diagram-v2" stroke="none" stroke-width="1" fill="none" fill-rule="evenodd">
        <polygon id="Page-1-Copy" fill="#354551" points="-88 775 1126 775 1126 -25 -88 -25"></polygon>
        <path d="M380,200.249221 C416.641974,165.978821 465.871054,145 520,145 C574.128946,145 623.358026,165.978821 660,200.249221 C696.641974,165.978821 745.871054,145 800,145 C913.218374,145 1005,236.781626 1005,350 C1005,463.218374 913.218374,555 800,555 C745.871054,555 696.641974,534.021179 660,499.750779 C623.358026,534.021179 574.128946,555 520,555 C465.871054,555 416.641974,534.021179 380,499.750779 C343.358026,534.021179 294.128946,555 240,555 C126.781626,555 35,463.218374 35,350 C35,236.781626 126.781626,145 240,145 C294.128946,145 343.358026,165.978821 380,200.249221 Z" id="Combined-Shape" stroke="#4C7EF3" stroke-width="4" fill-opacity="0.300000012" fill="#4C7EF3"></path>
        <path d="M380,200 C419.999915,237.411006 445,290.661351 445,349.750779 C445,408.840206 419.999915,462.090551 380,499.501557 C340.000085,462.090551 315,408.840206 315,349.750779 C315,290.661351 340.000085,237.411006 380,200 Z" id="Combined-Shape" stroke="#4C7EF3" stroke-width="4"></path>
        <path d="M660,200 C699.999915,237.411006 725,290.661351 725,349.750779 C725,408.840206 699.999915,462.090551 660,499.501557 C620.000085,462.090551 595,408.840206 595,349.750779 C595,290.661351 620.000085,237.411006 660,200 Z" id="Combined-Shape-Copy" stroke="#4C7EF3" stroke-width="4"></path>
        <path d="M172.538086,632.81543 C170.645498,632.81543 168.95769,632.491702 167.474609,631.844238 C165.991529,631.196774 164.782394,630.297532 163.847168,629.146484 C162.911942,627.995437 162.203616,626.64519 161.722168,625.095703 C161.24072,623.546216 161,621.84734 161,619.999023 C161,617.54198 161.451005,615.36443 162.353027,613.466309 C163.25505,611.568187 164.60253,610.065761 166.395508,608.958984 C168.188486,607.852208 170.30793,607.298828 172.753906,607.298828 C175.443373,607.298828 177.734366,607.863276 179.626953,608.992188 L178.614258,610.635742 C176.887687,609.595372 174.939789,609.075195 172.770508,609.075195 C171.254224,609.075195 169.89291,609.360186 168.686523,609.930176 C167.480137,610.500166 166.492354,611.288732 165.723145,612.295898 C164.953935,613.303065 164.367352,614.470696 163.963379,615.798828 C163.559406,617.12696 163.357422,618.565747 163.357422,620.115234 C163.357422,621.631518 163.542804,623.034336 163.913574,624.32373 C164.284344,625.613125 164.843258,626.764155 165.590332,627.776855 C166.337406,628.789556 167.330723,629.586423 168.570312,630.16748 C169.809902,630.748538 171.237622,631.039062 172.853516,631.039062 C174.591155,631.039062 176.527984,630.557622 178.664062,629.594727 L179.095703,631.304688 C177.47981,632.311854 175.293959,632.81543 172.538086,632.81543 Z M190.368164,631.188477 C191.696296,631.188477 192.81689,630.83708 193.72998,630.134277 C194.643071,629.431474 195.307127,628.504563 195.722168,627.353516 C196.137209,626.202468 196.344727,624.87989 196.344727,623.385742 C196.344727,621.039376 195.846685,619.152351 194.850586,617.724609 C193.854487,616.296868 192.338226,615.583008 190.301758,615.583008 C188.973626,615.583008 187.841964,615.939938 186.906738,616.653809 C185.971512,617.367679 185.288088,618.302891 184.856445,619.459473 C184.424803,620.616054 184.208984,621.941399 184.208984,623.435547 C184.208984,625.704438 184.737462,627.563795 185.794434,629.013672 C186.851405,630.463549 188.375967,631.188477 190.368164,631.188477 Z M190.21875,632.832031 C188.569653,632.832031 187.117031,632.416996 185.86084,631.586914 C184.604649,630.756832 183.647301,629.630704 182.98877,628.208496 C182.330238,626.786288 182.000977,625.17872 182.000977,623.385742 C182.000977,622.035475 182.191893,620.78207 182.57373,619.625488 C182.955568,618.468907 183.500648,617.467289 184.208984,616.620605 C184.917321,615.773922 185.797195,615.109866 186.848633,614.628418 C187.90007,614.14697 189.067702,613.90625 190.351562,613.90625 C192.055998,613.90625 193.533522,614.324052 194.78418,615.159668 C196.034837,615.995284 196.972816,617.118645 197.598145,618.529785 C198.223473,619.940925 198.536133,621.548494 198.536133,623.352539 C198.536133,625.167652 198.215172,626.783522 197.573242,628.200195 C196.931312,629.616869 195.973965,630.742997 194.701172,631.578613 C193.428379,632.414229 191.934253,632.832031 190.21875,632.832031 Z M202.586914,632.433594 L202.586914,614.238281 L204.379883,614.238281 L204.662109,617.043945 C205.315107,616.069982 206.192215,615.303551 207.293457,614.744629 C208.3947,614.185707 209.581699,613.90625 210.854492,613.90625 C212.9463,613.90625 214.484696,614.481765 215.469727,615.632812 C216.454758,616.78386 216.947266,618.621081 216.947266,621.144531 L216.947266,632.433594 L214.87207,632.433594 L214.87207,620.214844 C214.816731,618.59895 214.473636,617.436852 213.842773,616.728516 C213.211911,616.020179 212.177091,615.666016 210.738281,615.666016 C209.089184,615.666016 207.741704,616.081051 206.695801,616.911133 C205.649897,617.741215 204.994142,618.814772 204.728516,620.131836 C204.684245,620.652021 204.662109,621.194333 204.662109,621.758789 L204.662109,632.433594 L202.586914,632.433594 Z M228.584961,632.81543 C226.161121,632.81543 224.271328,631.974292 222.915527,630.291992 C221.559726,628.609692 220.881836,626.285497 220.881836,623.319336 C220.881836,620.530259 221.581861,618.264169 222.981934,616.520996 C224.382006,614.777823 226.227528,613.90625 228.518555,613.90625 C229.647467,613.90625 230.776362,614.149737 231.905273,614.636719 C233.034185,615.1237 233.891924,615.881831 234.478516,616.911133 L234.478516,607.182617 L236.470703,607 L236.470703,632.433594 L234.760742,632.433594 L234.461914,629.694336 C233.831052,630.723638 232.97608,631.501137 231.896973,632.026855 C230.817866,632.552574 229.713873,632.81543 228.584961,632.81543 Z M228.535156,631.188477 C229.564458,631.188477 230.466467,631.000327 231.241211,630.624023 C232.015954,630.247719 232.63574,629.716475 233.100586,629.030273 C233.565432,628.344072 233.911294,627.555506 234.138184,626.664551 C234.365073,625.773596 234.478516,624.785813 234.478516,623.701172 C234.478516,618.289035 232.486348,615.583008 228.501953,615.583008 C227.561193,615.583008 226.731123,615.807127 226.011719,616.255371 C225.292314,616.703616 224.7251,617.3068 224.310059,618.064941 C223.895017,618.823083 223.587892,619.647619 223.388672,620.538574 C223.189452,621.429529 223.089844,622.367508 223.089844,623.352539 C223.089844,624.204757 223.150716,625.004391 223.272461,625.751465 C223.394206,626.498539 223.593423,627.209632 223.870117,627.884766 C224.146811,628.559899 224.489907,629.138181 224.899414,629.619629 C225.308921,630.101077 225.823565,630.482909 226.443359,630.765137 C227.063154,631.047365 227.760413,631.188477 228.535156,631.188477 Z M241.567383,632.433594 L241.567383,614.238281 L243.642578,614.238281 L243.642578,632.433594 L241.567383,632.433594 Z M241.567383,610.519531 L241.567383,607.730469 L243.625977,607.730469 L243.625977,610.519531 L241.567383,610.519531 Z M253.869141,632.81543 C252.341789,632.81543 251.223962,632.469567 250.515625,631.777832 C249.807288,631.086097 249.453125,629.959969 249.453125,628.399414 L249.453125,615.749023 L246.879883,615.749023 L247.029297,614.503906 L249.486328,614.271484 L250.03418,610.104492 L251.478516,610.004883 L251.478516,614.238281 L256.791016,614.238281 L256.791016,615.749023 L251.478516,615.749023 L251.478516,627.967773 C251.478516,629.251634 251.6888,630.11214 252.109375,630.549316 C252.52995,630.986493 253.271479,631.205078 254.333984,631.205078 C255.020186,631.205078 255.872391,631.077801 256.890625,630.823242 L256.973633,632.416992 C255.634433,632.682619 254.599613,632.81543 253.869141,632.81543 Z M260.177734,632.433594 L260.177734,614.238281 L262.25293,614.238281 L262.25293,632.433594 L260.177734,632.433594 Z M260.177734,610.519531 L260.177734,607.730469 L262.236328,607.730469 L262.236328,610.519531 L260.177734,610.519531 Z M274.886719,631.188477 C276.21485,631.188477 277.335445,630.83708 278.248535,630.134277 C279.161626,629.431474 279.825682,628.504563 280.240723,627.353516 C280.655764,626.202468 280.863281,624.87989 280.863281,623.385742 C280.863281,621.039376 280.365239,619.152351 279.369141,617.724609 C278.373042,616.296868 276.856781,615.583008 274.820312,615.583008 C273.492181,615.583008 272.360519,615.939938 271.425293,616.653809 C270.490067,617.367679 269.806643,618.302891 269.375,619.459473 C268.943357,620.616054 268.727539,621.941399 268.727539,623.435547 C268.727539,625.704438 269.256017,627.563795 270.312988,629.013672 C271.36996,630.463549 272.894521,631.188477 274.886719,631.188477 Z M274.737305,632.832031 C273.088208,632.832031 271.635586,632.416996 270.379395,631.586914 C269.123203,630.756832 268.165856,629.630704 267.507324,628.208496 C266.848792,626.786288 266.519531,625.17872 266.519531,623.385742 C266.519531,622.035475 266.710447,620.78207 267.092285,619.625488 C267.474123,618.468907 268.019202,617.467289 268.727539,616.620605 C269.435876,615.773922 270.31575,615.109866 271.367188,614.628418 C272.418625,614.14697 273.586257,613.90625 274.870117,613.90625 C276.574553,613.90625 278.052077,614.324052 279.302734,615.159668 C280.553392,615.995284 281.491371,617.118645 282.116699,618.529785 C282.742028,619.940925 283.054688,621.548494 283.054688,623.352539 C283.054688,625.167652 282.733727,626.783522 282.091797,628.200195 C281.449867,629.616869 280.492519,630.742997 279.219727,631.578613 C277.946934,632.414229 276.452808,632.832031 274.737305,632.832031 Z M287.105469,632.433594 L287.105469,614.238281 L288.898438,614.238281 L289.180664,617.043945 C289.833662,616.069982 290.710769,615.303551 291.812012,614.744629 C292.913254,614.185707 294.100254,613.90625 295.373047,613.90625 C297.464854,613.90625 299.00325,614.481765 299.988281,615.632812 C300.973312,616.78386 301.46582,618.621081 301.46582,621.144531 L301.46582,632.433594 L299.390625,632.433594 L299.390625,620.214844 C299.335286,618.59895 298.992191,617.436852 298.361328,616.728516 C297.730466,616.020179 296.695645,615.666016 295.256836,615.666016 C293.607739,615.666016 292.260259,616.081051 291.214355,616.911133 C290.168452,617.741215 289.512697,618.814772 289.24707,620.131836 C289.202799,620.652021 289.180664,621.194333 289.180664,621.758789 L289.180664,632.433594 L287.105469,632.433594 Z M316.025391,632.433594 L316.025391,609.921875 C315.671222,610.176434 315.109542,610.49186 314.340332,610.868164 C313.571122,611.244468 312.804691,611.565428 312.041016,611.831055 L312.041016,610.038086 C314.365246,608.964513 315.820635,608.195315 316.407227,607.730469 L318.150391,607.730469 L318.150391,632.433594 L316.025391,632.433594 Z" id="Condition-1" fill="#DBE5FD"></path>
        <path d="M730.100098,632.370605 C728.263174,632.370605 726.625007,632.0564 725.185547,631.427979 C723.746087,630.799557 722.572514,629.926763 721.664795,628.80957 C720.757076,627.692377 720.069582,626.381843 719.602295,624.87793 C719.135007,623.374016 718.901367,621.725107 718.901367,619.931152 C718.901367,617.546375 719.339107,615.432871 720.2146,613.590576 C721.090092,611.748282 722.397941,610.290044 724.138184,609.21582 C725.878427,608.141596 727.935535,607.604492 730.30957,607.604492 C732.919935,607.604492 735.143546,608.152338 736.980469,609.248047 L735.997559,610.843262 C734.321769,609.833491 732.431163,609.328613 730.325684,609.328613 C728.853997,609.328613 727.532721,609.605222 726.361816,610.158447 C725.190912,610.711673 724.232181,611.477046 723.485596,612.45459 C722.73901,613.432134 722.16968,614.565423 721.777588,615.854492 C721.385496,617.143561 721.189453,618.540032 721.189453,620.043945 C721.189453,621.515632 721.369383,622.877191 721.729248,624.128662 C722.089113,625.380133 722.631588,626.49731 723.356689,627.480225 C724.081791,628.46314 725.045892,629.236569 726.249023,629.800537 C727.452154,630.364505 728.837883,630.646484 730.40625,630.646484 C732.092782,630.646484 733.972646,630.179204 736.045898,629.244629 L736.464844,630.904297 C734.896477,631.881841 732.774916,632.370605 730.100098,632.370605 Z M747.405762,630.791504 C748.694831,630.791504 749.782466,630.450443 750.668701,629.768311 C751.554936,629.086178 752.199461,628.186529 752.602295,627.069336 C753.005129,625.952143 753.206543,624.668464 753.206543,623.218262 C753.206543,620.940907 752.723149,619.109382 751.756348,617.723633 C750.789546,616.337884 749.317881,615.64502 747.341309,615.64502 C746.05224,615.64502 744.953862,615.991452 744.046143,616.684326 C743.138423,617.377201 742.4751,618.284906 742.056152,619.407471 C741.637205,620.530035 741.427734,621.816399 741.427734,623.266602 C741.427734,625.468761 741.940669,627.27343 742.966553,628.680664 C743.992437,630.087898 745.472158,630.791504 747.405762,630.791504 Z M747.260742,632.386719 C745.660148,632.386719 744.25025,631.983891 743.031006,631.178223 C741.811761,630.372555 740.882572,629.279548 740.243408,627.89917 C739.604245,626.518792 739.284668,624.958505 739.284668,623.218262 C739.284668,621.907708 739.469969,620.691168 739.840576,619.568604 C740.211183,618.446039 740.740231,617.473881 741.427734,616.6521 C742.115238,615.830318 742.969233,615.185793 743.989746,614.718506 C745.010259,614.251218 746.143548,614.017578 747.389648,614.017578 C749.043954,614.017578 750.478021,614.423092 751.691895,615.234131 C752.905768,616.04517 753.816159,617.135491 754.423096,618.505127 C755.030032,619.874763 755.333496,621.43505 755.333496,623.186035 C755.333496,624.947763 755.021976,626.516106 754.398926,627.891113 C753.775876,629.26612 752.846686,630.359127 751.611328,631.170166 C750.37597,631.981205 748.92579,632.386719 747.260742,632.386719 Z M759.265137,632 L759.265137,614.339844 L761.005371,614.339844 L761.279297,617.062988 C761.913089,616.117671 762.764399,615.373782 763.833252,614.831299 C764.902105,614.288816 766.054193,614.017578 767.289551,614.017578 C769.319834,614.017578 770.812984,614.576166 771.769043,615.693359 C772.725102,616.810552 773.203125,618.593738 773.203125,621.042969 L773.203125,632 L771.188965,632 L771.188965,620.140625 C771.135254,618.572258 770.802249,617.444339 770.189941,616.756836 C769.577634,616.069332 768.573249,615.725586 767.176758,615.725586 C765.576164,615.725586 764.268316,616.128414 763.253174,616.934082 C762.238032,617.73975 761.601564,618.781732 761.34375,620.060059 C761.300781,620.564944 761.279297,621.091306 761.279297,621.63916 L761.279297,632 L759.265137,632 Z M784.498535,632.370605 C782.145984,632.370605 780.311774,631.554207 778.99585,629.921387 C777.679925,628.288566 777.021973,626.032729 777.021973,623.153809 C777.021973,620.446764 777.701409,618.247323 779.060303,616.55542 C780.419196,614.863517 782.210438,614.017578 784.434082,614.017578 C785.529791,614.017578 786.625483,614.253904 787.721191,614.726562 C788.8169,615.199221 789.649411,615.935054 790.21875,616.934082 L790.21875,607.491699 L792.152344,607.314453 L792.152344,632 L790.492676,632 L790.202637,629.341309 C789.590329,630.340337 788.760503,631.094968 787.713135,631.605225 C786.665766,632.115481 785.594244,632.370605 784.498535,632.370605 Z M784.450195,630.791504 C785.449224,630.791504 786.324703,630.608889 787.07666,630.243652 C787.828617,629.878416 788.430174,629.362796 788.881348,628.696777 C789.332522,628.030758 789.668212,627.265385 789.888428,626.400635 C790.108644,625.535884 790.21875,624.577154 790.21875,623.524414 C790.21875,618.271458 788.285176,615.64502 784.417969,615.64502 C783.504878,615.64502 782.699222,615.862547 782.000977,616.297607 C781.302731,616.732668 780.752199,617.318112 780.349365,618.053955 C779.946531,618.789799 779.648438,619.590084 779.455078,620.454834 C779.261718,621.319584 779.165039,622.229976 779.165039,623.186035 C779.165039,624.013188 779.224121,624.789303 779.342285,625.514404 C779.46045,626.239506 779.653807,626.929684 779.922363,627.584961 C780.190919,628.240238 780.523924,628.801511 780.921387,629.268799 C781.31885,629.736086 781.818356,630.106688 782.419922,630.380615 C783.021487,630.654542 783.698238,630.791504 784.450195,630.791504 Z M797.099121,632 L797.099121,614.339844 L799.113281,614.339844 L799.113281,632 L797.099121,632 Z M797.099121,610.730469 L797.099121,608.023438 L799.097168,608.023438 L799.097168,610.730469 L797.099121,610.730469 Z M809.039062,632.370605 C807.556633,632.370605 806.471683,632.034915 805.78418,631.363525 C805.096676,630.692135 804.75293,629.599129 804.75293,628.084473 L804.75293,615.806152 L802.255371,615.806152 L802.400391,614.597656 L804.785156,614.37207 L805.316895,610.327637 L806.71875,610.230957 L806.71875,614.339844 L811.875,614.339844 L811.875,615.806152 L806.71875,615.806152 L806.71875,627.665527 C806.71875,628.911627 806.92285,629.746824 807.331055,630.171143 C807.73926,630.595461 808.458979,630.807617 809.490234,630.807617 C810.156253,630.807617 810.983393,630.684083 811.97168,630.437012 L812.052246,631.983887 C810.752435,632.241701 809.74805,632.370605 809.039062,632.370605 Z M815.162109,632 L815.162109,614.339844 L817.17627,614.339844 L817.17627,632 L815.162109,632 Z M815.162109,610.730469 L815.162109,608.023438 L817.160156,608.023438 L817.160156,610.730469 L815.162109,610.730469 Z M829.438477,630.791504 C830.727546,630.791504 831.815181,630.450443 832.701416,629.768311 C833.587651,629.086178 834.232176,628.186529 834.63501,627.069336 C835.037844,625.952143 835.239258,624.668464 835.239258,623.218262 C835.239258,620.940907 834.755864,619.109382 833.789062,617.723633 C832.822261,616.337884 831.350596,615.64502 829.374023,615.64502 C828.084954,615.64502 826.986577,615.991452 826.078857,616.684326 C825.171138,617.377201 824.507815,618.284906 824.088867,619.407471 C823.66992,620.530035 823.460449,621.816399 823.460449,623.266602 C823.460449,625.468761 823.973384,627.27343 824.999268,628.680664 C826.025152,630.087898 827.504873,630.791504 829.438477,630.791504 Z M829.293457,632.386719 C827.692863,632.386719 826.282965,631.983891 825.063721,631.178223 C823.844476,630.372555 822.915286,629.279548 822.276123,627.89917 C821.63696,626.518792 821.317383,624.958505 821.317383,623.218262 C821.317383,621.907708 821.502684,620.691168 821.873291,619.568604 C822.243898,618.446039 822.772946,617.473881 823.460449,616.6521 C824.147953,615.830318 825.001948,615.185793 826.022461,614.718506 C827.042974,614.251218 828.176263,614.017578 829.422363,614.017578 C831.076668,614.017578 832.510736,614.423092 833.724609,615.234131 C834.938483,616.04517 835.848874,617.135491 836.455811,618.505127 C837.062747,619.874763 837.366211,621.43505 837.366211,623.186035 C837.366211,624.947763 837.054691,626.516106 836.431641,627.891113 C835.808591,629.26612 834.879401,630.359127 833.644043,631.170166 C832.408685,631.981205 830.958504,632.386719 829.293457,632.386719 Z M841.297852,632 L841.297852,614.339844 L843.038086,614.339844 L843.312012,617.062988 C843.945804,616.117671 844.797114,615.373782 845.865967,614.831299 C846.93482,614.288816 848.086908,614.017578 849.322266,614.017578 C851.352549,614.017578 852.845698,614.576166 853.801758,615.693359 C854.757817,616.810552 855.23584,618.593738 855.23584,621.042969 L855.23584,632 L853.22168,632 L853.22168,620.140625 C853.167968,618.572258 852.834964,617.444339 852.222656,616.756836 C851.610349,616.069332 850.605964,615.725586 849.209473,615.725586 C847.608879,615.725586 846.30103,616.128414 845.285889,616.934082 C844.270747,617.73975 843.634279,618.781732 843.376465,620.060059 C843.333496,620.564944 843.312012,621.091306 843.312012,621.63916 L843.312012,632 L841.297852,632 Z M873.524414,632.370605 C872.11718,632.370605 870.860357,632.177248 869.753906,631.790527 C868.647455,631.403807 867.884768,631.011721 867.46582,630.614258 L868.223145,628.95459 C869.684089,630.093267 871.386709,630.662598 873.331055,630.662598 C875.039071,630.662598 876.395259,630.214116 877.399658,629.317139 C878.404058,628.420162 878.90625,627.14454 878.90625,625.490234 C878.90625,624.641597 878.782716,623.897708 878.535645,623.258545 C878.288573,622.619382 877.958254,622.103762 877.544678,621.71167 C877.131101,621.319578 876.610111,620.99463 875.981689,620.736816 C875.353268,620.479003 874.708744,620.299073 874.048096,620.197021 C873.387448,620.09497 872.632817,620.027832 871.78418,619.995605 L870.849609,619.995605 L870.849609,618.190918 L871.558594,618.190918 C872.160159,618.169433 872.70532,618.129151 873.194092,618.070068 C873.682864,618.010986 874.198484,617.919678 874.740967,617.796143 C875.28345,617.672607 875.753416,617.498048 876.150879,617.272461 C876.548342,617.046874 876.913573,616.770265 877.246582,616.442627 C877.579592,616.114989 877.83203,615.704104 878.003906,615.209961 C878.175782,614.715818 878.261719,614.151859 878.261719,613.518066 C878.261719,610.703599 876.693375,609.296387 873.556641,609.296387 C872.482417,609.296387 871.472661,609.449461 870.527344,609.755615 C869.582027,610.061769 868.813968,610.483396 868.223145,611.020508 L867.481934,609.344727 C868.85694,608.16308 871.069809,607.572266 874.120605,607.572266 C874.894047,607.572266 875.637936,607.687743 876.352295,607.918701 C877.066654,608.149659 877.71655,608.485349 878.302002,608.925781 C878.887454,609.366213 879.354735,609.957028 879.703857,610.698242 C880.05298,611.439457 880.227539,612.277339 880.227539,613.211914 C880.227539,616.251968 878.825698,618.196285 876.021973,619.044922 C879.276872,619.882817 880.931152,621.999006 880.984863,625.393555 C881.01709,627.466807 880.343024,629.147943 878.962646,630.437012 C877.582268,631.726081 875.769542,632.370605 873.524414,632.370605 Z" id="Condition-3" fill="#DBE5FD"></path>
        <path d="M447.49707,632.381836 C445.604483,632.381836 443.916674,632.058109 442.433594,631.410645 C440.950513,630.76318 439.741378,629.863938 438.806152,628.712891 C437.870926,627.561843 437.1626,626.211596 436.681152,624.662109 C436.199705,623.112622 435.958984,621.413746 435.958984,619.56543 C435.958984,617.108386 436.409989,614.930836 437.312012,613.032715 C438.214034,611.134593 439.561514,609.632167 441.354492,608.525391 C443.14747,607.418614 445.266915,606.865234 447.712891,606.865234 C450.402357,606.865234 452.69335,607.429682 454.585938,608.558594 L453.573242,610.202148 C451.846671,609.161779 449.898774,608.641602 447.729492,608.641602 C446.213209,608.641602 444.851894,608.926592 443.645508,609.496582 C442.439122,610.066572 441.451338,610.855138 440.682129,611.862305 C439.912919,612.869471 439.326337,614.037103 438.922363,615.365234 C438.51839,616.693366 438.316406,618.132154 438.316406,619.681641 C438.316406,621.197924 438.501789,622.600742 438.872559,623.890137 C439.243329,625.179531 439.802242,626.330561 440.549316,627.343262 C441.29639,628.355962 442.289707,629.152829 443.529297,629.733887 C444.768886,630.314944 446.196607,630.605469 447.8125,630.605469 C449.550139,630.605469 451.486968,630.124028 453.623047,629.161133 L454.054688,630.871094 C452.438794,631.87826 450.252943,632.381836 447.49707,632.381836 Z M465.327148,630.754883 C466.65528,630.754883 467.775874,630.403487 468.688965,629.700684 C469.602055,628.997881 470.266111,628.070969 470.681152,626.919922 C471.096193,625.768874 471.303711,624.446297 471.303711,622.952148 C471.303711,620.605783 470.805669,618.718757 469.80957,617.291016 C468.813472,615.863274 467.297211,615.149414 465.260742,615.149414 C463.932611,615.149414 462.800949,615.506344 461.865723,616.220215 C460.930497,616.934086 460.247072,617.869298 459.81543,619.025879 C459.383787,620.18246 459.167969,621.507805 459.167969,623.001953 C459.167969,625.270845 459.696447,627.130201 460.753418,628.580078 C461.810389,630.029955 463.334951,630.754883 465.327148,630.754883 Z M465.177734,632.398438 C463.528638,632.398438 462.076015,631.983403 460.819824,631.15332 C459.563633,630.323238 458.606286,629.19711 457.947754,627.774902 C457.289222,626.352695 456.959961,624.745126 456.959961,622.952148 C456.959961,621.601881 457.150877,620.348476 457.532715,619.191895 C457.914553,618.035313 458.459632,617.033696 459.167969,616.187012 C459.876306,615.340328 460.75618,614.676272 461.807617,614.194824 C462.859055,613.713376 464.026686,613.472656 465.310547,613.472656 C467.014982,613.472656 468.492507,613.890458 469.743164,614.726074 C470.993821,615.56169 471.9318,616.685052 472.557129,618.096191 C473.182458,619.507331 473.495117,621.1149 473.495117,622.918945 C473.495117,624.734059 473.174157,626.349928 472.532227,627.766602 C471.890296,629.183275 470.932949,630.309403 469.660156,631.14502 C468.387363,631.980636 466.893238,632.398438 465.177734,632.398438 Z M477.545898,632 L477.545898,613.804688 L479.338867,613.804688 L479.621094,616.610352 C480.274092,615.636388 481.151199,614.869957 482.252441,614.311035 C483.353684,613.752113 484.540684,613.472656 485.813477,613.472656 C487.905284,613.472656 489.44368,614.048171 490.428711,615.199219 C491.413742,616.350266 491.90625,618.187487 491.90625,620.710938 L491.90625,632 L489.831055,632 L489.831055,619.78125 C489.775716,618.165357 489.43262,617.003259 488.801758,616.294922 C488.170895,615.586585 487.136075,615.232422 485.697266,615.232422 C484.048169,615.232422 482.700689,615.647457 481.654785,616.477539 C480.608881,617.307621 479.953126,618.381178 479.6875,619.698242 C479.643229,620.218427 479.621094,620.760739 479.621094,621.325195 L479.621094,632 L477.545898,632 Z M503.543945,632.381836 C501.120105,632.381836 499.230313,631.540699 497.874512,629.858398 C496.518711,628.176098 495.84082,625.851903 495.84082,622.885742 C495.84082,620.096666 496.540846,617.830575 497.940918,616.087402 C499.34099,614.34423 501.186512,613.472656 503.477539,613.472656 C504.606451,613.472656 505.735346,613.716143 506.864258,614.203125 C507.99317,614.690107 508.850909,615.448237 509.4375,616.477539 L509.4375,606.749023 L511.429688,606.566406 L511.429688,632 L509.719727,632 L509.420898,629.260742 C508.790036,630.290044 507.935064,631.067543 506.855957,631.593262 C505.77685,632.11898 504.672857,632.381836 503.543945,632.381836 Z M503.494141,630.754883 C504.523443,630.754883 505.425452,630.566734 506.200195,630.19043 C506.974939,629.814126 507.594724,629.282881 508.05957,628.59668 C508.524416,627.910478 508.870279,627.121912 509.097168,626.230957 C509.324057,625.340002 509.4375,624.352219 509.4375,623.267578 C509.4375,617.855442 507.445332,615.149414 503.460938,615.149414 C502.520178,615.149414 501.690108,615.373533 500.970703,615.821777 C500.251298,616.270022 499.684084,616.873206 499.269043,617.631348 C498.854002,618.389489 498.546876,619.214025 498.347656,620.10498 C498.148437,620.995935 498.048828,621.933914 498.048828,622.918945 C498.048828,623.771163 498.1097,624.570797 498.231445,625.317871 C498.353191,626.064945 498.552407,626.776038 498.829102,627.451172 C499.105796,628.126305 499.448891,628.704587 499.858398,629.186035 C500.267906,629.667483 500.782549,630.049315 501.402344,630.331543 C502.022139,630.613771 502.719397,630.754883 503.494141,630.754883 Z M516.526367,632 L516.526367,613.804688 L518.601562,613.804688 L518.601562,632 L516.526367,632 Z M516.526367,610.085938 L516.526367,607.296875 L518.584961,607.296875 L518.584961,610.085938 L516.526367,610.085938 Z M528.828125,632.381836 C527.300774,632.381836 526.182946,632.035974 525.474609,631.344238 C524.766273,630.652503 524.412109,629.526375 524.412109,627.96582 L524.412109,615.31543 L521.838867,615.31543 L521.988281,614.070312 L524.445312,613.837891 L524.993164,609.670898 L526.4375,609.571289 L526.4375,613.804688 L531.75,613.804688 L531.75,615.31543 L526.4375,615.31543 L526.4375,627.53418 C526.4375,628.81804 526.647784,629.678546 527.068359,630.115723 C527.488934,630.552899 528.230463,630.771484 529.292969,630.771484 C529.97917,630.771484 530.831375,630.644207 531.849609,630.389648 L531.932617,631.983398 C530.593418,632.249025 529.558597,632.381836 528.828125,632.381836 Z M535.136719,632 L535.136719,613.804688 L537.211914,613.804688 L537.211914,632 L535.136719,632 Z M535.136719,610.085938 L535.136719,607.296875 L537.195312,607.296875 L537.195312,610.085938 L535.136719,610.085938 Z M549.845703,630.754883 C551.173835,630.754883 552.294429,630.403487 553.20752,629.700684 C554.12061,628.997881 554.784666,628.070969 555.199707,626.919922 C555.614748,625.768874 555.822266,624.446297 555.822266,622.952148 C555.822266,620.605783 555.324224,618.718757 554.328125,617.291016 C553.332026,615.863274 551.815765,615.149414 549.779297,615.149414 C548.451165,615.149414 547.319503,615.506344 546.384277,616.220215 C545.449051,616.934086 544.765627,617.869298 544.333984,619.025879 C543.902342,620.18246 543.686523,621.507805 543.686523,623.001953 C543.686523,625.270845 544.215001,627.130201 545.271973,628.580078 C546.328944,630.029955 547.853506,630.754883 549.845703,630.754883 Z M549.696289,632.398438 C548.047192,632.398438 546.59457,631.983403 545.338379,631.15332 C544.082188,630.323238 543.124841,629.19711 542.466309,627.774902 C541.807777,626.352695 541.478516,624.745126 541.478516,622.952148 C541.478516,621.601881 541.669432,620.348476 542.05127,619.191895 C542.433107,618.035313 542.978187,617.033696 543.686523,616.187012 C544.39486,615.340328 545.274734,614.676272 546.326172,614.194824 C547.377609,613.713376 548.545241,613.472656 549.829102,613.472656 C551.533537,613.472656 553.011061,613.890458 554.261719,614.726074 C555.512376,615.56169 556.450355,616.685052 557.075684,618.096191 C557.701012,619.507331 558.013672,621.1149 558.013672,622.918945 C558.013672,624.734059 557.692712,626.349928 557.050781,627.766602 C556.408851,629.183275 555.451504,630.309403 554.178711,631.14502 C552.905918,631.980636 551.411792,632.398438 549.696289,632.398438 Z M562.064453,632 L562.064453,613.804688 L563.857422,613.804688 L564.139648,616.610352 C564.792646,615.636388 565.669754,614.869957 566.770996,614.311035 C567.872239,613.752113 569.059238,613.472656 570.332031,613.472656 C572.423839,613.472656 573.962235,614.048171 574.947266,615.199219 C575.932297,616.350266 576.424805,618.187487 576.424805,620.710938 L576.424805,632 L574.349609,632 L574.349609,619.78125 C574.294271,618.165357 573.951175,617.003259 573.320312,616.294922 C572.68945,615.586585 571.65463,615.232422 570.21582,615.232422 C568.566724,615.232422 567.219244,615.647457 566.17334,616.477539 C565.127436,617.307621 564.471681,618.381178 564.206055,619.698242 C564.161784,620.218427 564.139648,620.760739 564.139648,621.325195 L564.139648,632 L562.064453,632 Z M588.626953,632 L588.128906,629.891602 L596.745117,619.864258 C597.874029,618.525058 598.715167,617.360194 599.268555,616.369629 C599.821943,615.379064 600.098633,614.413416 600.098633,613.472656 C600.098633,611.901034 599.727868,610.697433 598.986328,609.861816 C598.244788,609.0262 597.138028,608.608398 595.666016,608.608398 C594.614578,608.608398 593.582525,608.766112 592.569824,609.081543 C591.557124,609.396974 590.729821,609.859046 590.087891,610.467773 L589.307617,608.857422 C590.691088,607.52929 592.838202,606.865234 595.749023,606.865234 C597.862966,606.865234 599.531407,607.446283 600.754395,608.608398 C601.977382,609.770514 602.588867,611.297842 602.588867,613.19043 C602.588867,614.463223 602.26514,615.716628 601.617676,616.950684 C600.970212,618.184739 599.904955,619.659497 598.421875,621.375 L590.951172,629.958008 L602.788086,629.958008 L602.655273,632 L588.626953,632 Z" id="Condition-2" fill="#DBE5FD"></path>
        <path d="M356.59375,103.960938 C356.59375,107.671894 357.446606,110.585276 359.152344,112.701172 C360.858081,114.817068 363.377588,115.875 366.710938,115.875 C370.044287,115.875 372.554028,114.820323 374.240234,112.710938 C375.926441,110.601552 376.769531,107.684914 376.769531,103.960938 C376.769531,100.158835 375.91993,97.2096459 374.220703,95.1132812 C372.521476,93.0169166 370.024756,91.96875 366.730469,91.96875 C363.436181,91.96875 360.923186,93.0169166 359.191406,95.1132812 C357.459627,97.2096459 356.59375,100.158835 356.59375,103.960938 Z M380.382812,103.960938 C380.382812,106.161469 380.080081,108.173168 379.474609,109.996094 C378.869138,111.81902 377.99675,113.384759 376.857422,114.693359 C375.718093,116.00196 374.282561,117.017575 372.550781,117.740234 C370.819002,118.462894 368.872407,118.824219 366.710938,118.824219 C363.794256,118.824219 361.297536,118.20248 359.220703,116.958984 C357.14387,115.715489 355.587896,113.983735 354.552734,111.763672 C353.517573,109.543609 353,106.936213 353,103.941406 C353,99.3189873 354.204415,95.6731904 356.613281,93.0039062 C359.022147,90.3346221 362.39451,89 366.730469,89 C371.001323,89 374.344389,90.3443876 376.759766,93.0332031 C379.175142,95.7220187 380.382812,99.3645604 380.382812,103.960938 Z M388.898438,92.203125 L388.898438,101.96875 C389.432294,101.96875 390.535799,101.981771 392.208984,102.007812 C393.88217,102.033854 395.174475,102.046875 396.085938,102.046875 C398.572929,102.046875 400.304683,101.633468 401.28125,100.806641 C402.257817,99.9798136 402.746094,98.6679777 402.746094,96.8710938 C402.746094,95.295565 402.277348,94.1237018 401.339844,93.3554688 C400.402339,92.5872357 398.833344,92.203125 396.632812,92.203125 L388.898438,92.203125 Z M407.414062,118.394531 L403.507812,118.394531 L399.523438,109.332031 C398.442703,106.897123 397.752606,105.432294 397.453125,104.9375 C396.502599,105.002604 395.376309,105.035156 394.074219,105.035156 L388.898438,104.878906 L388.898438,118.394531 L385.441406,118.394531 L385.441406,89.1757812 L394.679688,89.1757812 C395.747401,89.1757812 396.691402,89.2018227 397.511719,89.2539062 C398.332035,89.3059898 399.149084,89.4003899 399.962891,89.5371094 C400.776697,89.6738288 401.48307,89.862629 402.082031,90.1035156 C402.680993,90.3444022 403.240883,90.6568991 403.761719,91.0410156 C404.282555,91.4251321 404.702472,91.8841119 405.021484,92.4179688 C405.340496,92.9518256 405.591145,93.5865849 405.773438,94.3222656 C405.95573,95.0579464 406.046875,95.8880162 406.046875,96.8125 C406.046875,98.6354258 405.568364,100.204421 404.611328,101.519531 C403.654292,102.834642 402.296884,103.746091 400.539062,104.253906 C400.539062,104.279948 400.66927,104.514321 400.929688,104.957031 C401.190105,105.399742 401.499347,105.943356 401.857422,106.587891 C402.215497,107.232425 402.492187,107.769529 402.6875,108.199219 L407.414062,118.394531 Z" id="OR" fill="#DBE5FD"></path>
        <path d="M636.59375,103.960938 C636.59375,107.671894 637.446606,110.585276 639.152344,112.701172 C640.858081,114.817068 643.377588,115.875 646.710938,115.875 C650.044287,115.875 652.554028,114.820323 654.240234,112.710938 C655.926441,110.601552 656.769531,107.684914 656.769531,103.960938 C656.769531,100.158835 655.91993,97.2096459 654.220703,95.1132812 C652.521476,93.0169166 650.024756,91.96875 646.730469,91.96875 C643.436181,91.96875 640.923186,93.0169166 639.191406,95.1132812 C637.459627,97.2096459 636.59375,100.158835 636.59375,103.960938 Z M660.382812,103.960938 C660.382812,106.161469 660.080081,108.173168 659.474609,109.996094 C658.869138,111.81902 657.99675,113.384759 656.857422,114.693359 C655.718093,116.00196 654.282561,117.017575 652.550781,117.740234 C650.819002,118.462894 648.872407,118.824219 646.710938,118.824219 C643.794256,118.824219 641.297536,118.20248 639.220703,116.958984 C637.14387,115.715489 635.587896,113.983735 634.552734,111.763672 C633.517573,109.543609 633,106.936213 633,103.941406 C633,99.3189873 634.204415,95.6731904 636.613281,93.0039062 C639.022147,90.3346221 642.39451,89 646.730469,89 C651.001323,89 654.344389,90.3443876 656.759766,93.0332031 C659.175142,95.7220187 660.382812,99.3645604 660.382812,103.960938 Z M668.898438,92.203125 L668.898438,101.96875 C669.432294,101.96875 670.535799,101.981771 672.208984,102.007812 C673.88217,102.033854 675.174475,102.046875 676.085938,102.046875 C678.572929,102.046875 680.304683,101.633468 681.28125,100.806641 C682.257817,99.9798136 682.746094,98.6679777 682.746094,96.8710938 C682.746094,95.295565 682.277348,94.1237018 681.339844,93.3554688 C680.402339,92.5872357 678.833344,92.203125 676.632812,92.203125 L668.898438,92.203125 Z M687.414062,118.394531 L683.507812,118.394531 L679.523438,109.332031 C678.442703,106.897123 677.752606,105.432294 677.453125,104.9375 C676.502599,105.002604 675.376309,105.035156 674.074219,105.035156 L668.898438,104.878906 L668.898438,118.394531 L665.441406,118.394531 L665.441406,89.1757812 L674.679688,89.1757812 C675.747401,89.1757812 676.691402,89.2018227 677.511719,89.2539062 C678.332035,89.3059898 679.149084,89.4003899 679.962891,89.5371094 C680.776697,89.6738288 681.48307,89.862629 682.082031,90.1035156 C682.680993,90.3444022 683.240883,90.6568991 683.761719,91.0410156 C684.282555,91.4251321 684.702472,91.8841119 685.021484,92.4179688 C685.340496,92.9518256 685.591145,93.5865849 685.773438,94.3222656 C685.95573,95.0579464 686.046875,95.8880162 686.046875,96.8125 C686.046875,98.6354258 685.568364,100.204421 684.611328,101.519531 C683.654292,102.834642 682.296884,103.746091 680.539062,104.253906 C680.539062,104.279948 680.66927,104.514321 680.929688,104.957031 C681.190105,105.399742 681.499347,105.943356 681.857422,106.587891 C682.215497,107.232425 682.492187,107.769529 682.6875,108.199219 L687.414062,118.394531 Z" id="OR-Copy" fill="#DBE5FD"></path>
    </g>
</svg>