<?xml version="1.0" encoding="UTF-8"?>
<svg width="1040px" height="720px" viewBox="0 0 1040 720" version="1.1" xmlns="http://www.w3.org/2000/svg" xmlns:xlink="http://www.w3.org/1999/xlink">
    <!-- Generator: Sketch 49.1 (51147) - http://www.bohemiancoding.com/sketch -->
    <title>OR diagram</title>
    <desc>Created with Sketch.</desc>
    <defs></defs>
    <g id="OR-diagram" stroke="none" stroke-width="1" fill="none" fill-rule="evenodd">
        <polygon id="Page-1-Copy" fill="#354551" points="-88 775 1126 775 1126 -25 -88 -25"></polygon>
        <g id="Group" transform="translate(174.000000, 88.000000)">
            <path d="M345,112.249221 C381.641974,77.9788206 430.871054,57 485,57 C598.218374,57 690,148.781626 690,262 C690,375.218374 598.218374,467 485,467 C430.871054,467 381.641974,446.021179 345,411.750779 C308.358026,446.021179 259.128946,467 205,467 C91.7816263,467 0,375.218374 0,262 C0,148.781626 91.7816263,57 205,57 C259.128946,57 308.358026,77.9788206 345,112.249221 Z" id="Combined-Shape" stroke="#4C7EF3" stroke-width="4" fill-opacity="0.300000012" fill="#4C7EF3"></path>
            <path d="M345,112 C384.999915,149.411006 410,202.661351 410,261.750779 C410,320.840206 384.999915,374.090551 345,411.501557 C305.000085,374.090551 280,320.840206 280,261.750779 C280,202.661351 305.000085,149.411006 345,112 Z" id="Combined-Shape" stroke="#4C7EF3" stroke-width="4"></path>
            <path d="M137.49707,544.381836 C135.604483,544.381836 133.916674,544.058109 132.433594,543.410645 C130.950513,542.76318 129.741378,541.863938 128.806152,540.712891 C127.870926,539.561843 127.1626,538.211596 126.681152,536.662109 C126.199705,535.112622 125.958984,533.413746 125.958984,531.56543 C125.958984,529.108386 126.409989,526.930836 127.312012,525.032715 C128.214034,523.134593 129.561514,521.632167 131.354492,520.525391 C133.14747,519.418614 135.266915,518.865234 137.712891,518.865234 C140.402357,518.865234 142.69335,519.429682 144.585938,520.558594 L143.573242,522.202148 C141.846671,521.161779 139.898774,520.641602 137.729492,520.641602 C136.213209,520.641602 134.851894,520.926592 133.645508,521.496582 C132.439122,522.066572 131.451338,522.855138 130.682129,523.862305 C129.912919,524.869471 129.326337,526.037103 128.922363,527.365234 C128.51839,528.693366 128.316406,530.132154 128.316406,531.681641 C128.316406,533.197924 128.501789,534.600742 128.872559,535.890137 C129.243329,537.179531 129.802242,538.330561 130.549316,539.343262 C131.29639,540.355962 132.289707,541.152829 133.529297,541.733887 C134.768886,542.314944 136.196607,542.605469 137.8125,542.605469 C139.550139,542.605469 141.486968,542.124028 143.623047,541.161133 L144.054688,542.871094 C142.438794,543.87826 140.252943,544.381836 137.49707,544.381836 Z M155.327148,542.754883 C156.65528,542.754883 157.775874,542.403487 158.688965,541.700684 C159.602055,540.997881 160.266111,540.070969 160.681152,538.919922 C161.096193,537.768874 161.303711,536.446297 161.303711,534.952148 C161.303711,532.605783 160.805669,530.718757 159.80957,529.291016 C158.813472,527.863274 157.297211,527.149414 155.260742,527.149414 C153.932611,527.149414 152.800949,527.506344 151.865723,528.220215 C150.930497,528.934086 150.247072,529.869298 149.81543,531.025879 C149.383787,532.18246 149.167969,533.507805 149.167969,535.001953 C149.167969,537.270845 149.696447,539.130201 150.753418,540.580078 C151.810389,542.029955 153.334951,542.754883 155.327148,542.754883 Z M155.177734,544.398438 C153.528638,544.398438 152.076015,543.983403 150.819824,543.15332 C149.563633,542.323238 148.606286,541.19711 147.947754,539.774902 C147.289222,538.352695 146.959961,536.745126 146.959961,534.952148 C146.959961,533.601881 147.150877,532.348476 147.532715,531.191895 C147.914553,530.035313 148.459632,529.033696 149.167969,528.187012 C149.876306,527.340328 150.75618,526.676272 151.807617,526.194824 C152.859055,525.713376 154.026686,525.472656 155.310547,525.472656 C157.014982,525.472656 158.492507,525.890458 159.743164,526.726074 C160.993821,527.56169 161.9318,528.685052 162.557129,530.096191 C163.182458,531.507331 163.495117,533.1149 163.495117,534.918945 C163.495117,536.734059 163.174157,538.349928 162.532227,539.766602 C161.890296,541.183275 160.932949,542.309403 159.660156,543.14502 C158.387363,543.980636 156.893238,544.398438 155.177734,544.398438 Z M167.545898,544 L167.545898,525.804688 L169.338867,525.804688 L169.621094,528.610352 C170.274092,527.636388 171.151199,526.869957 172.252441,526.311035 C173.353684,525.752113 174.540684,525.472656 175.813477,525.472656 C177.905284,525.472656 179.44368,526.048171 180.428711,527.199219 C181.413742,528.350266 181.90625,530.187487 181.90625,532.710938 L181.90625,544 L179.831055,544 L179.831055,531.78125 C179.775716,530.165357 179.43262,529.003259 178.801758,528.294922 C178.170895,527.586585 177.136075,527.232422 175.697266,527.232422 C174.048169,527.232422 172.700689,527.647457 171.654785,528.477539 C170.608881,529.307621 169.953126,530.381178 169.6875,531.698242 C169.643229,532.218427 169.621094,532.760739 169.621094,533.325195 L169.621094,544 L167.545898,544 Z M193.543945,544.381836 C191.120105,544.381836 189.230313,543.540699 187.874512,541.858398 C186.518711,540.176098 185.84082,537.851903 185.84082,534.885742 C185.84082,532.096666 186.540846,529.830575 187.940918,528.087402 C189.34099,526.34423 191.186512,525.472656 193.477539,525.472656 C194.606451,525.472656 195.735346,525.716143 196.864258,526.203125 C197.99317,526.690107 198.850909,527.448237 199.4375,528.477539 L199.4375,518.749023 L201.429688,518.566406 L201.429688,544 L199.719727,544 L199.420898,541.260742 C198.790036,542.290044 197.935064,543.067543 196.855957,543.593262 C195.77685,544.11898 194.672857,544.381836 193.543945,544.381836 Z M193.494141,542.754883 C194.523443,542.754883 195.425452,542.566734 196.200195,542.19043 C196.974939,541.814126 197.594724,541.282881 198.05957,540.59668 C198.524416,539.910478 198.870279,539.121912 199.097168,538.230957 C199.324057,537.340002 199.4375,536.352219 199.4375,535.267578 C199.4375,529.855442 197.445332,527.149414 193.460938,527.149414 C192.520178,527.149414 191.690108,527.373533 190.970703,527.821777 C190.251298,528.270022 189.684084,528.873206 189.269043,529.631348 C188.854002,530.389489 188.546876,531.214025 188.347656,532.10498 C188.148437,532.995935 188.048828,533.933914 188.048828,534.918945 C188.048828,535.771163 188.1097,536.570797 188.231445,537.317871 C188.353191,538.064945 188.552407,538.776038 188.829102,539.451172 C189.105796,540.126305 189.448891,540.704587 189.858398,541.186035 C190.267906,541.667483 190.782549,542.049315 191.402344,542.331543 C192.022139,542.613771 192.719397,542.754883 193.494141,542.754883 Z M206.526367,544 L206.526367,525.804688 L208.601562,525.804688 L208.601562,544 L206.526367,544 Z M206.526367,522.085938 L206.526367,519.296875 L208.584961,519.296875 L208.584961,522.085938 L206.526367,522.085938 Z M218.828125,544.381836 C217.300774,544.381836 216.182946,544.035974 215.474609,543.344238 C214.766273,542.652503 214.412109,541.526375 214.412109,539.96582 L214.412109,527.31543 L211.838867,527.31543 L211.988281,526.070312 L214.445312,525.837891 L214.993164,521.670898 L216.4375,521.571289 L216.4375,525.804688 L221.75,525.804688 L221.75,527.31543 L216.4375,527.31543 L216.4375,539.53418 C216.4375,540.81804 216.647784,541.678546 217.068359,542.115723 C217.488934,542.552899 218.230463,542.771484 219.292969,542.771484 C219.97917,542.771484 220.831375,542.644207 221.849609,542.389648 L221.932617,543.983398 C220.593418,544.249025 219.558597,544.381836 218.828125,544.381836 Z M225.136719,544 L225.136719,525.804688 L227.211914,525.804688 L227.211914,544 L225.136719,544 Z M225.136719,522.085938 L225.136719,519.296875 L227.195312,519.296875 L227.195312,522.085938 L225.136719,522.085938 Z M239.845703,542.754883 C241.173835,542.754883 242.294429,542.403487 243.20752,541.700684 C244.12061,540.997881 244.784666,540.070969 245.199707,538.919922 C245.614748,537.768874 245.822266,536.446297 245.822266,534.952148 C245.822266,532.605783 245.324224,530.718757 244.328125,529.291016 C243.332026,527.863274 241.815765,527.149414 239.779297,527.149414 C238.451165,527.149414 237.319503,527.506344 236.384277,528.220215 C235.449051,528.934086 234.765627,529.869298 234.333984,531.025879 C233.902342,532.18246 233.686523,533.507805 233.686523,535.001953 C233.686523,537.270845 234.215001,539.130201 235.271973,540.580078 C236.328944,542.029955 237.853506,542.754883 239.845703,542.754883 Z M239.696289,544.398438 C238.047192,544.398438 236.59457,543.983403 235.338379,543.15332 C234.082188,542.323238 233.124841,541.19711 232.466309,539.774902 C231.807777,538.352695 231.478516,536.745126 231.478516,534.952148 C231.478516,533.601881 231.669432,532.348476 232.05127,531.191895 C232.433107,530.035313 232.978187,529.033696 233.686523,528.187012 C234.39486,527.340328 235.274734,526.676272 236.326172,526.194824 C237.377609,525.713376 238.545241,525.472656 239.829102,525.472656 C241.533537,525.472656 243.011061,525.890458 244.261719,526.726074 C245.512376,527.56169 246.450355,528.685052 247.075684,530.096191 C247.701012,531.507331 248.013672,533.1149 248.013672,534.918945 C248.013672,536.734059 247.692712,538.349928 247.050781,539.766602 C246.408851,541.183275 245.451504,542.309403 244.178711,543.14502 C242.905918,543.980636 241.411792,544.398438 239.696289,544.398438 Z M252.064453,544 L252.064453,525.804688 L253.857422,525.804688 L254.139648,528.610352 C254.792646,527.636388 255.669754,526.869957 256.770996,526.311035 C257.872239,525.752113 259.059238,525.472656 260.332031,525.472656 C262.423839,525.472656 263.962235,526.048171 264.947266,527.199219 C265.932297,528.350266 266.424805,530.187487 266.424805,532.710938 L266.424805,544 L264.349609,544 L264.349609,531.78125 C264.294271,530.165357 263.951175,529.003259 263.320312,528.294922 C262.68945,527.586585 261.65463,527.232422 260.21582,527.232422 C258.566724,527.232422 257.219244,527.647457 256.17334,528.477539 C255.127436,529.307621 254.471681,530.381178 254.206055,531.698242 C254.161784,532.218427 254.139648,532.760739 254.139648,533.325195 L254.139648,544 L252.064453,544 Z M280.984375,544 L280.984375,521.488281 C280.630207,521.74284 280.068526,522.058266 279.299316,522.43457 C278.530107,522.810874 277.763676,523.131835 277,523.397461 L277,521.604492 C279.32423,520.530919 280.779619,519.761721 281.366211,519.296875 L283.109375,519.296875 L283.109375,544 L280.984375,544 Z" id="Condition-1" fill="#DBE5FD"></path>
            <path d="M412.49707,544.381836 C410.604483,544.381836 408.916674,544.058109 407.433594,543.410645 C405.950513,542.76318 404.741378,541.863938 403.806152,540.712891 C402.870926,539.561843 402.1626,538.211596 401.681152,536.662109 C401.199705,535.112622 400.958984,533.413746 400.958984,531.56543 C400.958984,529.108386 401.409989,526.930836 402.312012,525.032715 C403.214034,523.134593 404.561514,521.632167 406.354492,520.525391 C408.14747,519.418614 410.266915,518.865234 412.712891,518.865234 C415.402357,518.865234 417.69335,519.429682 419.585938,520.558594 L418.573242,522.202148 C416.846671,521.161779 414.898774,520.641602 412.729492,520.641602 C411.213209,520.641602 409.851894,520.926592 408.645508,521.496582 C407.439122,522.066572 406.451338,522.855138 405.682129,523.862305 C404.912919,524.869471 404.326337,526.037103 403.922363,527.365234 C403.51839,528.693366 403.316406,530.132154 403.316406,531.681641 C403.316406,533.197924 403.501789,534.600742 403.872559,535.890137 C404.243329,537.179531 404.802242,538.330561 405.549316,539.343262 C406.29639,540.355962 407.289707,541.152829 408.529297,541.733887 C409.768886,542.314944 411.196607,542.605469 412.8125,542.605469 C414.550139,542.605469 416.486968,542.124028 418.623047,541.161133 L419.054688,542.871094 C417.438794,543.87826 415.252943,544.381836 412.49707,544.381836 Z M430.327148,542.754883 C431.65528,542.754883 432.775874,542.403487 433.688965,541.700684 C434.602055,540.997881 435.266111,540.070969 435.681152,538.919922 C436.096193,537.768874 436.303711,536.446297 436.303711,534.952148 C436.303711,532.605783 435.805669,530.718757 434.80957,529.291016 C433.813472,527.863274 432.297211,527.149414 430.260742,527.149414 C428.932611,527.149414 427.800949,527.506344 426.865723,528.220215 C425.930497,528.934086 425.247072,529.869298 424.81543,531.025879 C424.383787,532.18246 424.167969,533.507805 424.167969,535.001953 C424.167969,537.270845 424.696447,539.130201 425.753418,540.580078 C426.810389,542.029955 428.334951,542.754883 430.327148,542.754883 Z M430.177734,544.398438 C428.528638,544.398438 427.076015,543.983403 425.819824,543.15332 C424.563633,542.323238 423.606286,541.19711 422.947754,539.774902 C422.289222,538.352695 421.959961,536.745126 421.959961,534.952148 C421.959961,533.601881 422.150877,532.348476 422.532715,531.191895 C422.914553,530.035313 423.459632,529.033696 424.167969,528.187012 C424.876306,527.340328 425.75618,526.676272 426.807617,526.194824 C427.859055,525.713376 429.026686,525.472656 430.310547,525.472656 C432.014982,525.472656 433.492507,525.890458 434.743164,526.726074 C435.993821,527.56169 436.9318,528.685052 437.557129,530.096191 C438.182458,531.507331 438.495117,533.1149 438.495117,534.918945 C438.495117,536.734059 438.174157,538.349928 437.532227,539.766602 C436.890296,541.183275 435.932949,542.309403 434.660156,543.14502 C433.387363,543.980636 431.893238,544.398438 430.177734,544.398438 Z M442.545898,544 L442.545898,525.804688 L444.338867,525.804688 L444.621094,528.610352 C445.274092,527.636388 446.151199,526.869957 447.252441,526.311035 C448.353684,525.752113 449.540684,525.472656 450.813477,525.472656 C452.905284,525.472656 454.44368,526.048171 455.428711,527.199219 C456.413742,528.350266 456.90625,530.187487 456.90625,532.710938 L456.90625,544 L454.831055,544 L454.831055,531.78125 C454.775716,530.165357 454.43262,529.003259 453.801758,528.294922 C453.170895,527.586585 452.136075,527.232422 450.697266,527.232422 C449.048169,527.232422 447.700689,527.647457 446.654785,528.477539 C445.608881,529.307621 444.953126,530.381178 444.6875,531.698242 C444.643229,532.218427 444.621094,532.760739 444.621094,533.325195 L444.621094,544 L442.545898,544 Z M468.543945,544.381836 C466.120105,544.381836 464.230313,543.540699 462.874512,541.858398 C461.518711,540.176098 460.84082,537.851903 460.84082,534.885742 C460.84082,532.096666 461.540846,529.830575 462.940918,528.087402 C464.34099,526.34423 466.186512,525.472656 468.477539,525.472656 C469.606451,525.472656 470.735346,525.716143 471.864258,526.203125 C472.99317,526.690107 473.850909,527.448237 474.4375,528.477539 L474.4375,518.749023 L476.429688,518.566406 L476.429688,544 L474.719727,544 L474.420898,541.260742 C473.790036,542.290044 472.935064,543.067543 471.855957,543.593262 C470.77685,544.11898 469.672857,544.381836 468.543945,544.381836 Z M468.494141,542.754883 C469.523443,542.754883 470.425452,542.566734 471.200195,542.19043 C471.974939,541.814126 472.594724,541.282881 473.05957,540.59668 C473.524416,539.910478 473.870279,539.121912 474.097168,538.230957 C474.324057,537.340002 474.4375,536.352219 474.4375,535.267578 C474.4375,529.855442 472.445332,527.149414 468.460938,527.149414 C467.520178,527.149414 466.690108,527.373533 465.970703,527.821777 C465.251298,528.270022 464.684084,528.873206 464.269043,529.631348 C463.854002,530.389489 463.546876,531.214025 463.347656,532.10498 C463.148437,532.995935 463.048828,533.933914 463.048828,534.918945 C463.048828,535.771163 463.1097,536.570797 463.231445,537.317871 C463.353191,538.064945 463.552407,538.776038 463.829102,539.451172 C464.105796,540.126305 464.448891,540.704587 464.858398,541.186035 C465.267906,541.667483 465.782549,542.049315 466.402344,542.331543 C467.022139,542.613771 467.719397,542.754883 468.494141,542.754883 Z M481.526367,544 L481.526367,525.804688 L483.601562,525.804688 L483.601562,544 L481.526367,544 Z M481.526367,522.085938 L481.526367,519.296875 L483.584961,519.296875 L483.584961,522.085938 L481.526367,522.085938 Z M493.828125,544.381836 C492.300774,544.381836 491.182946,544.035974 490.474609,543.344238 C489.766273,542.652503 489.412109,541.526375 489.412109,539.96582 L489.412109,527.31543 L486.838867,527.31543 L486.988281,526.070312 L489.445312,525.837891 L489.993164,521.670898 L491.4375,521.571289 L491.4375,525.804688 L496.75,525.804688 L496.75,527.31543 L491.4375,527.31543 L491.4375,539.53418 C491.4375,540.81804 491.647784,541.678546 492.068359,542.115723 C492.488934,542.552899 493.230463,542.771484 494.292969,542.771484 C494.97917,542.771484 495.831375,542.644207 496.849609,542.389648 L496.932617,543.983398 C495.593418,544.249025 494.558597,544.381836 493.828125,544.381836 Z M500.136719,544 L500.136719,525.804688 L502.211914,525.804688 L502.211914,544 L500.136719,544 Z M500.136719,522.085938 L500.136719,519.296875 L502.195312,519.296875 L502.195312,522.085938 L500.136719,522.085938 Z M514.845703,542.754883 C516.173835,542.754883 517.294429,542.403487 518.20752,541.700684 C519.12061,540.997881 519.784666,540.070969 520.199707,538.919922 C520.614748,537.768874 520.822266,536.446297 520.822266,534.952148 C520.822266,532.605783 520.324224,530.718757 519.328125,529.291016 C518.332026,527.863274 516.815765,527.149414 514.779297,527.149414 C513.451165,527.149414 512.319503,527.506344 511.384277,528.220215 C510.449051,528.934086 509.765627,529.869298 509.333984,531.025879 C508.902342,532.18246 508.686523,533.507805 508.686523,535.001953 C508.686523,537.270845 509.215001,539.130201 510.271973,540.580078 C511.328944,542.029955 512.853506,542.754883 514.845703,542.754883 Z M514.696289,544.398438 C513.047192,544.398438 511.59457,543.983403 510.338379,543.15332 C509.082188,542.323238 508.124841,541.19711 507.466309,539.774902 C506.807777,538.352695 506.478516,536.745126 506.478516,534.952148 C506.478516,533.601881 506.669432,532.348476 507.05127,531.191895 C507.433107,530.035313 507.978187,529.033696 508.686523,528.187012 C509.39486,527.340328 510.274734,526.676272 511.326172,526.194824 C512.377609,525.713376 513.545241,525.472656 514.829102,525.472656 C516.533537,525.472656 518.011061,525.890458 519.261719,526.726074 C520.512376,527.56169 521.450355,528.685052 522.075684,530.096191 C522.701012,531.507331 523.013672,533.1149 523.013672,534.918945 C523.013672,536.734059 522.692712,538.349928 522.050781,539.766602 C521.408851,541.183275 520.451504,542.309403 519.178711,543.14502 C517.905918,543.980636 516.411792,544.398438 514.696289,544.398438 Z M527.064453,544 L527.064453,525.804688 L528.857422,525.804688 L529.139648,528.610352 C529.792646,527.636388 530.669754,526.869957 531.770996,526.311035 C532.872239,525.752113 534.059238,525.472656 535.332031,525.472656 C537.423839,525.472656 538.962235,526.048171 539.947266,527.199219 C540.932297,528.350266 541.424805,530.187487 541.424805,532.710938 L541.424805,544 L539.349609,544 L539.349609,531.78125 C539.294271,530.165357 538.951175,529.003259 538.320312,528.294922 C537.68945,527.586585 536.65463,527.232422 535.21582,527.232422 C533.566724,527.232422 532.219244,527.647457 531.17334,528.477539 C530.127436,529.307621 529.471681,530.381178 529.206055,531.698242 C529.161784,532.218427 529.139648,532.760739 529.139648,533.325195 L529.139648,544 L527.064453,544 Z M553.626953,544 L553.128906,541.891602 L561.745117,531.864258 C562.874029,530.525058 563.715167,529.360194 564.268555,528.369629 C564.821943,527.379064 565.098633,526.413416 565.098633,525.472656 C565.098633,523.901034 564.727868,522.697433 563.986328,521.861816 C563.244788,521.0262 562.138028,520.608398 560.666016,520.608398 C559.614578,520.608398 558.582525,520.766112 557.569824,521.081543 C556.557124,521.396974 555.729821,521.859046 555.087891,522.467773 L554.307617,520.857422 C555.691088,519.52929 557.838202,518.865234 560.749023,518.865234 C562.862966,518.865234 564.531407,519.446283 565.754395,520.608398 C566.977382,521.770514 567.588867,523.297842 567.588867,525.19043 C567.588867,526.463223 567.26514,527.716628 566.617676,528.950684 C565.970212,530.184739 564.904955,531.659497 563.421875,533.375 L555.951172,541.958008 L567.788086,541.958008 L567.655273,544 L553.626953,544 Z" id="Condition-2" fill="#DBE5FD"></path>
            <path d="M321.78125,15.5664062 C321.78125,19.2773623 322.634106,22.1907446 324.339844,24.3066406 C326.045581,26.4225366 328.565088,27.4804688 331.898438,27.4804688 C335.231787,27.4804688 337.741528,26.4257918 339.427734,24.3164062 C341.113941,22.2070207 341.957031,19.2903832 341.957031,15.5664062 C341.957031,11.7643039 341.10743,8.81511465 339.408203,6.71875 C337.708976,4.62238535 335.212256,3.57421875 331.917969,3.57421875 C328.623681,3.57421875 326.110686,4.62238535 324.378906,6.71875 C322.647127,8.81511465 321.78125,11.7643039 321.78125,15.5664062 Z M345.570312,15.5664062 C345.570312,17.7669381 345.267581,19.7786367 344.662109,21.6015625 C344.056638,23.4244883 343.18425,24.9902278 342.044922,26.2988281 C340.905593,27.6074284 339.470061,28.6230433 337.738281,29.3457031 C336.006502,30.068363 334.059907,30.4296875 331.898438,30.4296875 C328.981756,30.4296875 326.485036,29.8079489 324.408203,28.5644531 C322.33137,27.3209573 320.775396,25.5892038 319.740234,23.3691406 C318.705073,21.1490774 318.1875,18.5416816 318.1875,15.546875 C318.1875,10.9244561 319.391915,7.27865918 321.800781,4.609375 C324.209647,1.94009082 327.58201,0.60546875 331.917969,0.60546875 C336.188823,0.60546875 339.531889,1.94985635 341.947266,4.63867188 C344.362642,7.3274874 345.570312,10.9700291 345.570312,15.5664062 Z M354.085938,3.80859375 L354.085938,13.5742188 C354.619794,13.5742188 355.723299,13.5872395 357.396484,13.6132812 C359.06967,13.639323 360.361975,13.6523438 361.273438,13.6523438 C363.760429,13.6523438 365.492183,13.2389364 366.46875,12.4121094 C367.445317,11.5852823 367.933594,10.2734465 367.933594,8.4765625 C367.933594,6.90103379 367.464848,5.72917051 366.527344,4.9609375 C365.589839,4.19270449 364.020844,3.80859375 361.820312,3.80859375 L354.085938,3.80859375 Z M372.601562,30 L368.695312,30 L364.710938,20.9375 C363.630203,18.502592 362.940106,17.0377629 362.640625,16.5429688 C361.690099,16.6080732 360.563809,16.640625 359.261719,16.640625 L354.085938,16.484375 L354.085938,30 L350.628906,30 L350.628906,0.78125 L359.867188,0.78125 C360.934901,0.78125 361.878902,0.807291406 362.699219,0.859375 C363.519535,0.911458594 364.336584,1.00585869 365.150391,1.14257812 C365.964197,1.27929756 366.67057,1.46809775 367.269531,1.70898438 C367.868493,1.949871 368.428383,2.26236787 368.949219,2.64648438 C369.470055,3.03060088 369.889972,3.48958066 370.208984,4.0234375 C370.527996,4.55729434 370.778645,5.19205361 370.960938,5.92773438 C371.14323,6.66341514 371.234375,7.49348496 371.234375,8.41796875 C371.234375,10.2408945 370.755864,11.8098893 369.798828,13.125 C368.841792,14.4401107 367.484384,15.35156 365.726562,15.859375 C365.726562,15.8854168 365.85677,16.1197895 366.117188,16.5625 C366.377605,17.0052105 366.686847,17.5488249 367.044922,18.1933594 C367.402997,18.8378938 367.679687,19.3749979 367.875,19.8046875 L372.601562,30 Z" id="OR" fill="#DBE5FD"></path>
        </g>
    </g>
</svg>