<?xml version="1.0" encoding="UTF-8"?>
<svg width="40px" height="40px" viewBox="0 0 40 40" version="1.1" xmlns="http://www.w3.org/2000/svg" xmlns:xlink="http://www.w3.org/1999/xlink">
    <!-- Generator: Sketch 47.1 (45422) - http://www.bohemiancoding.com/sketch -->
    <title>food icon</title>
    <desc>Created with Sketch.</desc>
    <defs></defs>
    <g id="Page-1" stroke="none" stroke-width="1" fill="none" fill-rule="evenodd">
        <g id="food-icon">
            <g id="pizza">
                <circle id="Oval" fill="#FBCFCF" cx="20" cy="20" r="20"></circle>
                <path d="M9.74075,13.511 C12.6155,10.8575 16.30475,9.53 20,9.53 C23.69525,9.53 27.3845,10.8575 30.2585,13.511 C30.41975,13.66025 30.4985,13.8575 30.5,14.06225 C30.49925,14.24675 30.4355,14.4245 30.30125,14.5715 C30.15125,14.73275 29.954,14.8115 29.74925,14.81225 C29.56625,14.8115 29.38775,14.74775 29.24075,14.61275 C29.19575,14.5715 29.147,14.537 29.10125,14.49575 C29.0855,14.4785 29.06375,14.4665 29.04575,14.45 C26.4815,12.17075 23.24,11.024 20,11.024 C16.76,11.024 13.51925,12.17075 10.95425,14.44925 C10.937,14.4665 10.9145,14.47775 10.89875,14.4965 C10.853,14.537 10.8035,14.5715 10.7585,14.6135 C10.6115,14.7485 10.4345,14.81225 10.25075,14.813 C10.046,14.8115 9.84875,14.73275 9.69875,14.57075 C9.5645,14.4245 9.50075,14.24675 9.5,14.063 C9.50075,13.8575 9.5795,13.66025 9.74075,13.511 L9.74075,13.511 Z M24.4835,21.91025 C24.04325,21.6575 23.54225,21.5 23,21.5 C21.344,21.5015 20.0015,22.844 20,24.5 C20.00075,25.7915 20.822,26.88275 21.96725,27.305 L20.699,30.02375 L20.68925,30.0455 C20.54975,30.362 20.29625,30.49175 20,30.5 C19.70375,30.49175 19.45025,30.362 19.31075,30.0455 L19.301,30.02375 L12.38825,15.203 C14.5925,13.42475 17.29025,12.52475 20,12.524 C22.70975,12.52475 25.40675,13.42475 27.61175,15.203 L24.4835,21.91025 L24.4835,21.91025 Z M22.604,25.93925 C21.971,25.763 21.5015,25.187 21.5,24.5 C21.5015,23.675 22.175,23.0015 23,23 C23.31725,23 23.60525,23.105 23.8475,23.273 L22.604,25.93925 L22.604,25.93925 Z M10.25075,16.313 C10.559,16.313 10.868,16.163 11.15825,16.034 L17.94125,30.5 L17.94275,30.5 C18.3275,31.25 19.184,31.85075 20,31.8425 C20.816,31.85075 21.6725,31.25 22.05725,30.5 L22.05875,30.5 L28.8425,16.034 C29.132,16.16225 29.44025,16.27325 29.74925,16.2725 C30.353,16.274 30.96125,16.0475 31.403,15.569 C31.80125,15.13775 32.00075,14.59625 32,14.0525 C32.00075,13.4495 31.75475,12.84575 31.27625,12.404 C28.112,9.4835 24.053,8.027 20,8.027 C15.947,8.027 11.888,9.48725 8.72375,12.40775 C8.2445,12.8495 7.99925,13.4585 8,14.06225 C7.99925,14.60525 8.19875,15.15725 8.59625,15.58775 C9.038,16.067 9.64625,16.31375 10.25075,16.313 L10.25075,16.313 Z" id="Fill-58" fill="#F65A5A"></path>
                <path d="M20,17 C19.9985,17.825 19.325,18.4985 18.5,18.5 C17.675,18.4985 17.0015,17.825 17,17 C17.0015,16.175 17.675,15.5015 18.5,15.5 C19.325,15.5015 19.9985,16.175 20,17 L20,17 Z M15.5,17 C15.5015,18.656 16.844,19.9985 18.5,20 C20.156,19.9985 21.4985,18.656 21.5,17 C21.4985,15.344 20.156,14.0015 18.5,14 C16.844,14.0015 15.5015,15.344 15.5,17 L15.5,17 Z" id="Fill-59" fill="#F65A5A"></path>
            </g>
        </g>
    </g>
</svg>