<?xml version="1.0" encoding="UTF-8"?>
<svg width="1040px" height="720px" viewBox="0 0 1040 720" version="1.1" xmlns="http://www.w3.org/2000/svg" xmlns:xlink="http://www.w3.org/1999/xlink">
    <!-- Generator: Sketch 47.1 (45422) - http://www.bohemiancoding.com/sketch -->
    <title>AND</title>
    <desc>Created with Sketch.</desc>
    <defs></defs>
    <g id="ven-diagram" stroke="none" stroke-width="1" fill="none" fill-rule="evenodd">
        <g id="AND">
            <polygon id="Page-1-Copy" fill="#354551" points="-88 775 1126 775 1126 -25 -88 -25"></polygon>
            <g id="Group" transform="translate(174.000000, 88.000000)">
                <circle id="Oval" stroke="#52B1DB" stroke-width="4" cx="205" cy="261" r="205"></circle>
                <circle id="Oval-Copy" stroke="#52B1DB" stroke-width="4" cx="485" cy="261" r="205"></circle>
                <path d="M346,111 C385.999915,148.473267 411,201.812234 411,261 C411,320.187766 385.999915,373.526733 346,411 C306.000085,373.526733 281,320.187766 281,261 C281,201.812234 306.000085,148.473267 346,111 Z" id="Combined-Shape" stroke="#52B1DB" stroke-width="4" fill-opacity="0.599999964" fill="#4E768D"></path>
                <path d="M137.527044,543.98329 C135.636268,543.98329 133.950074,543.657458 132.468413,543.005784 C130.986752,542.35411 129.778774,541.44902 128.844443,540.290488 C127.910112,539.131957 127.202464,537.77293 126.721477,536.213368 C126.24049,534.653805 126,532.943882 126,531.083548 C126,528.610527 126.450573,526.418818 127.351733,524.508355 C128.252892,522.597891 129.599083,521.085695 131.390344,519.971722 C133.181606,518.857749 135.299023,518.300771 137.742658,518.300771 C140.429551,518.300771 142.718351,518.868889 144.609127,520.005141 L143.597401,521.659383 C141.872482,520.612248 139.926449,520.088689 137.759244,520.088689 C136.244411,520.088689 134.884399,520.375533 133.679168,520.949229 C132.473936,521.522925 131.487098,522.316619 130.718625,523.330334 C129.950151,524.34405 129.36413,525.519274 128.960543,526.856041 C128.556956,528.192809 128.355166,529.640952 128.355166,531.200514 C128.355166,532.726657 128.540371,534.138597 128.910786,535.436375 C129.281201,536.734154 129.83958,537.892668 130.585939,538.911954 C131.332298,539.931239 132.324665,540.733288 133.563068,541.318123 C134.801471,541.902959 136.227825,542.195373 137.842172,542.195373 C139.578148,542.195373 141.513124,541.710802 143.647158,540.741645 L144.078386,542.462725 C142.464039,543.47644 140.28028,543.98329 137.527044,543.98329 Z M155.340059,542.345758 C156.66692,542.345758 157.786442,541.992077 158.698658,541.284704 C159.610875,540.577332 160.274295,539.644393 160.688939,538.485861 C161.103583,537.327329 161.310902,535.996151 161.310902,534.492288 C161.310902,532.130665 160.813337,530.23137 159.818191,528.794344 C158.823046,527.357319 157.308236,526.638817 155.273716,526.638817 C153.946856,526.638817 152.816277,526.998068 151.881946,527.716581 C150.947615,528.435094 150.264845,529.376387 149.833615,530.540488 C149.402385,531.70459 149.186774,533.038553 149.186774,534.542416 C149.186774,536.826061 149.714746,538.697508 150.770706,540.156812 C151.826666,541.616117 153.349768,542.345758 155.340059,542.345758 Z M155.190788,544 C153.543269,544 152.092037,543.582266 150.837048,542.746787 C149.582059,541.911307 148.625628,540.777856 147.967727,539.346401 C147.309825,537.914946 146.980879,536.296924 146.980879,534.492288 C146.980879,533.133241 147.171612,531.871685 147.553085,530.707584 C147.934557,529.543482 148.479115,528.535351 149.186774,527.683162 C149.894433,526.830973 150.773465,526.162599 151.823896,525.678021 C152.874327,525.193442 154.040842,524.951157 155.323473,524.951157 C157.026278,524.951157 158.502388,525.371675 159.751849,526.212725 C161.001309,527.053775 161.93839,528.18444 162.563121,529.604756 C163.187851,531.025071 163.500211,532.643093 163.500211,534.458869 C163.500211,536.285785 163.179558,537.912161 162.538242,539.338046 C161.896926,540.763932 160.940495,541.897382 159.66892,542.738432 C158.397346,543.579481 156.90465,544 155.190788,544 Z M167.547116,543.598972 L167.547116,525.285347 L169.338369,525.285347 L169.620325,528.109254 C170.272699,527.128958 171.148966,526.357544 172.249155,525.794987 C173.349343,525.232431 174.535207,524.951157 175.806782,524.951157 C177.896588,524.951157 179.433512,525.530414 180.4176,526.688946 C181.401688,527.847478 181.893725,529.696645 181.893725,532.236504 L181.893725,543.598972 L179.820516,543.598972 L179.820516,531.300771 C179.76523,529.674371 179.422462,528.504717 178.792204,527.791774 C178.161945,527.078831 177.128115,526.722365 175.690682,526.722365 C174.043164,526.722365 172.696973,527.140099 171.652071,527.975578 C170.607168,528.811058 169.95204,529.891596 169.686668,531.217224 C169.642439,531.740791 169.620325,532.28663 169.620325,532.854756 L169.620325,543.598972 L167.547116,543.598972 Z M193.520283,543.98329 C191.098762,543.98329 189.210779,543.136684 187.856275,541.443445 C186.501772,539.750206 185.82453,537.410898 185.82453,534.42545 C185.82453,531.618238 186.523886,529.337412 187.922618,527.582905 C189.32135,525.828397 191.165106,524.951157 193.45394,524.951157 C194.581772,524.951157 195.709587,525.196227 196.837418,525.686375 C197.96525,526.176523 198.822168,526.939584 199.408198,527.975578 L199.408198,518.183805 L201.398479,518 L201.398479,543.598972 L199.690154,543.598972 L199.391612,540.841902 C198.761353,541.877897 197.9072,542.660452 196.829125,543.189589 C195.751051,543.718726 194.648115,543.98329 193.520283,543.98329 Z M193.470526,542.345758 C194.498843,542.345758 195.399989,542.156386 196.173991,541.777635 C196.947993,541.398884 197.567186,540.864185 198.031587,540.173522 C198.495988,539.482859 198.841519,538.689165 199.068191,537.792416 C199.294863,536.895668 199.408198,535.901462 199.408198,534.809769 C199.408198,529.362441 197.417937,526.638817 193.437355,526.638817 C192.497495,526.638817 191.66822,526.864394 190.949503,527.315553 C190.230787,527.766712 189.664116,528.373818 189.249472,529.136889 C188.834828,529.899961 188.527996,530.729858 188.328967,531.626607 C188.129938,532.523355 188.030425,533.467433 188.030425,534.458869 C188.030425,535.316628 188.091238,536.121462 188.212867,536.873393 C188.334496,537.625325 188.533522,538.341042 188.809951,539.020566 C189.086381,539.700089 189.429148,540.282131 189.838263,540.76671 C190.247379,541.251288 190.761529,541.635603 191.380731,541.919666 C191.999933,542.203729 192.696524,542.345758 193.470526,542.345758 Z M206.490281,543.598972 L206.490281,525.285347 L208.56349,525.285347 L208.56349,543.598972 L206.490281,543.598972 Z M206.490281,521.542416 L206.490281,518.735219 L208.546905,518.735219 L208.546905,521.542416 L206.490281,521.542416 Z M218.780266,543.98329 C217.254376,543.98329 216.137619,543.635179 215.42996,542.938946 C214.722301,542.242713 214.368477,541.109262 214.368477,539.53856 L214.368477,526.805913 L211.797697,526.805913 L211.946968,525.552699 L214.401648,525.318766 L214.948975,521.124679 L216.391929,521.024422 L216.391929,525.285347 L221.699345,525.285347 L221.699345,526.805913 L216.391929,526.805913 L216.391929,539.104113 C216.391929,540.396322 216.602012,541.262423 217.022185,541.702442 C217.442357,542.142461 218.183177,542.362468 219.244665,542.362468 C219.93021,542.362468 220.781599,542.234363 221.798859,541.978149 L221.881787,543.582262 C220.54387,543.849616 219.51004,543.98329 218.780266,543.98329 Z M225.082823,543.598972 L225.082823,525.285347 L227.156032,525.285347 L227.156032,543.598972 L225.082823,543.598972 Z M225.082823,521.542416 L225.082823,518.735219 L227.139446,518.735219 L227.139446,521.542416 L225.082823,521.542416 Z M239.777731,542.345758 C241.104591,542.345758 242.224113,541.992077 243.13633,541.284704 C244.048547,540.577332 244.711967,539.644393 245.126611,538.485861 C245.541255,537.327329 245.748574,535.996151 245.748574,534.492288 C245.748574,532.130665 245.251009,530.23137 244.255863,528.794344 C243.260718,527.357319 241.745908,526.638817 239.711388,526.638817 C238.384527,526.638817 237.253949,526.998068 236.319618,527.716581 C235.385287,528.435094 234.702516,529.376387 234.271287,530.540488 C233.840057,531.70459 233.624445,533.038553 233.624445,534.542416 C233.624445,536.826061 234.152417,538.697508 235.208377,540.156812 C236.264337,541.616117 237.78744,542.345758 239.777731,542.345758 Z M239.62846,544 C237.980941,544 236.529709,543.582266 235.27472,542.746787 C234.019731,541.911307 233.0633,540.777856 232.405398,539.346401 C231.747497,537.914946 231.418551,536.296924 231.418551,534.492288 C231.418551,533.133241 231.609284,531.871685 231.990756,530.707584 C232.372229,529.543482 232.916786,528.535351 233.624445,527.683162 C234.332104,526.830973 235.211136,526.162599 236.261568,525.678021 C237.311999,525.193442 238.478513,524.951157 239.761145,524.951157 C241.46395,524.951157 242.94006,525.371675 244.18952,526.212725 C245.438981,527.053775 246.376062,528.18444 247.000792,529.604756 C247.625523,531.025071 247.937883,532.643093 247.937883,534.458869 C247.937883,536.285785 247.61723,537.912161 246.975914,539.338046 C246.334598,540.763932 245.378167,541.897382 244.106592,542.738432 C242.835017,543.579481 241.342321,544 239.62846,544 Z M251.984788,543.598972 L251.984788,525.285347 L253.776041,525.285347 L254.057997,528.109254 C254.71037,527.128958 255.586638,526.357544 256.686827,525.794987 C257.787015,525.232431 258.972879,524.951157 260.244454,524.951157 C262.334259,524.951157 263.871183,525.530414 264.855271,526.688946 C265.83936,527.847478 266.331397,529.696645 266.331397,532.236504 L266.331397,543.598972 L264.258187,543.598972 L264.258187,531.300771 C264.202901,529.674371 263.860134,528.504717 263.229875,527.791774 C262.599617,527.078831 261.565786,526.722365 260.128354,526.722365 C258.480835,526.722365 257.134645,527.140099 256.089742,527.975578 C255.044839,528.811058 254.389712,529.891596 254.12434,531.217224 C254.080111,531.740791 254.057997,532.28663 254.057997,532.854756 L254.057997,543.598972 L251.984788,543.598972 Z M280.877034,543.598972 L280.877034,520.940874 C280.523204,521.197088 279.962061,521.514565 279.193588,521.893316 C278.425114,522.272067 277.659416,522.595114 276.896472,522.862468 L276.896472,521.057841 C279.218478,519.977287 280.672474,519.203087 281.258504,518.735219 L283,518.735219 L283,543.598972 L280.877034,543.598972 Z" id="Condition-1" fill="#FFFFFF"></path>
                <path d="M412.549905,543.98329 C410.655379,543.98329 408.965842,543.657458 407.481242,543.005784 C405.996642,542.35411 404.786269,541.44902 403.850085,540.290488 C402.913901,539.131957 402.204849,537.77293 401.722908,536.213368 C401.240967,534.653805 401,532.943882 401,531.083548 C401,528.610527 401.451467,526.418818 402.354413,524.508355 C403.25736,522.597891 404.606221,521.085695 406.401035,519.971722 C408.195849,518.857749 410.317465,518.300771 412.765947,518.300771 C415.458169,518.300771 417.751508,518.868889 419.646034,520.005141 L418.632302,521.659383 C416.903962,520.612248 414.954069,520.088689 412.782565,520.088689 C411.264729,520.088689 409.90202,520.375533 408.694397,520.949229 C407.486775,521.522925 406.49798,522.316619 405.727983,523.330334 C404.957985,524.34405 404.370802,525.519274 403.966415,526.856041 C403.562027,528.192809 403.359837,529.640952 403.359837,531.200514 C403.359837,532.726657 403.545409,534.138597 403.916559,535.436375 C404.287709,536.734154 404.847195,537.892668 405.595034,538.911954 C406.342874,539.931239 407.337208,540.733288 408.578067,541.318123 C409.818927,541.902959 411.248109,542.195373 412.865658,542.195373 C414.605077,542.195373 416.543891,541.710802 418.682157,540.741645 L419.11424,542.462725 C417.496691,543.47644 415.308602,543.98329 412.549905,543.98329 Z M430.398249,542.345758 C431.727741,542.345758 432.849483,541.992077 433.763509,541.284704 C434.677535,540.577332 435.342271,539.644393 435.757737,538.485861 C436.173203,537.327329 436.380933,535.996151 436.380933,534.492288 C436.380933,532.130665 435.882381,530.23137 434.885262,528.794344 C433.888143,527.357319 432.370329,526.638817 430.331774,526.638817 C429.002282,526.638817 427.869461,526.998068 426.933277,527.716581 C425.997093,528.435094 425.312969,529.376387 424.880884,530.540488 C424.448799,531.70459 424.232759,533.038553 424.232759,534.542416 C424.232759,536.826061 424.761779,538.697508 425.819833,540.156812 C426.877887,541.616117 428.40401,542.345758 430.398249,542.345758 Z M430.248681,544 C428.597895,544 427.143785,543.582266 425.886307,542.746787 C424.628829,541.911307 423.670501,540.777856 423.011295,539.346401 C422.352088,537.914946 422.02249,536.296924 422.02249,534.492288 C422.02249,533.133241 422.213601,531.871685 422.59583,530.707584 C422.978059,529.543482 423.523697,528.535351 424.232759,527.683162 C424.941822,526.830973 425.822597,526.162599 426.875112,525.678021 C427.927627,525.193442 429.096454,524.951157 430.38163,524.951157 C432.087812,524.951157 433.566849,525.371675 434.818788,526.212725 C436.070726,527.053775 437.009666,528.18444 437.635635,529.604756 C438.261605,531.025071 438.574585,532.643093 438.574585,534.458869 C438.574585,536.285785 438.253295,537.912161 437.610708,539.338046 C436.96812,540.763932 436.009792,541.897382 434.735695,542.738432 C433.461598,543.579481 431.965942,544 430.248681,544 Z M442.629515,543.598972 L442.629515,525.285347 L444.424321,525.285347 L444.706837,528.109254 C445.360503,527.128958 446.238509,526.357544 447.34088,525.794987 C448.44325,525.232431 449.631466,524.951157 450.905563,524.951157 C452.999513,524.951157 454.539485,525.530414 455.525525,526.688946 C456.511565,527.847478 457.004578,529.696645 457.004578,532.236504 L457.004578,543.598972 L454.927256,543.598972 L454.927256,531.300771 C454.871861,529.674371 454.528414,528.504717 453.896905,527.791774 C453.265396,527.078831 452.229516,526.722365 450.789233,526.722365 C449.138447,526.722365 447.789586,527.140099 446.742611,527.975578 C445.695636,528.811058 445.039209,529.891596 444.773311,531.217224 C444.728994,531.740791 444.706837,532.28663 444.706837,532.854756 L444.706837,543.598972 L442.629515,543.598972 Z M468.654194,543.98329 C466.227871,543.98329 464.336143,543.136684 462.978953,541.443445 C461.621763,539.750206 460.943178,537.410898 460.943178,534.42545 C460.943178,531.618238 461.643921,529.337412 463.045427,527.582905 C464.446934,525.828397 466.294346,524.951157 468.58772,524.951157 C469.717789,524.951157 470.84784,525.196227 471.977908,525.686375 C473.107977,526.176523 473.966594,526.939584 474.553786,527.975578 L474.553786,518.183805 L476.548015,518 L476.548015,543.598972 L474.836302,543.598972 L474.537168,540.841902 C473.905659,541.877897 473.049811,542.660452 471.969599,543.189589 C470.889387,543.718726 469.784263,543.98329 468.654194,543.98329 Z M468.604339,542.345758 C469.634695,542.345758 470.537628,542.156386 471.313165,541.777635 C472.088703,541.398884 472.709123,540.864185 473.174445,540.173522 C473.639767,539.482859 473.985984,538.689165 474.213106,537.792416 C474.440227,536.895668 474.553786,535.901462 474.553786,534.809769 C474.553786,529.362441 472.559578,526.638817 468.571102,526.638817 C467.629378,526.638817 466.798458,526.864394 466.078316,527.315553 C465.358175,527.766712 464.790379,528.373818 464.374913,529.136889 C463.959447,529.899961 463.652006,530.729858 463.452582,531.626607 C463.253159,532.523355 463.153448,533.467433 463.153448,534.458869 C463.153448,535.316628 463.214382,536.121462 463.336252,536.873393 C463.458122,537.625325 463.657543,538.341042 463.934521,539.020566 C464.211498,539.700089 464.554945,540.282131 464.964872,540.76671 C465.374799,541.251288 465.889969,541.635603 466.510399,541.919666 C467.130829,542.203729 467.828802,542.345758 468.604339,542.345758 Z M481.649915,543.598972 L481.649915,525.285347 L483.727237,525.285347 L483.727237,543.598972 L481.649915,543.598972 Z M481.649915,521.542416 L481.649915,518.735219 L483.710618,518.735219 L483.710618,521.542416 L481.649915,521.542416 Z M493.964275,543.98329 C492.435359,543.98329 491.316387,543.635179 490.607324,542.938946 C489.898262,542.242713 489.543736,541.109262 489.543736,539.53856 L489.543736,526.805913 L486.967857,526.805913 L487.117425,525.552699 L489.576973,525.318766 L490.125386,521.124679 L491.571201,521.024422 L491.571201,525.285347 L496.889143,525.285347 L496.889143,526.805913 L491.571201,526.805913 L491.571201,539.104113 C491.571201,540.396322 491.781701,541.262423 492.202707,541.702442 C492.623713,542.142461 493.366001,542.362468 494.429595,542.362468 C495.116499,542.362468 495.969577,542.234363 496.988855,541.978149 L497.071947,543.582262 C495.731376,543.849616 494.695496,543.98329 493.964275,543.98329 Z M500.279331,543.598972 L500.279331,525.285347 L502.356652,525.285347 L502.356652,543.598972 L500.279331,543.598972 Z M500.279331,521.542416 L500.279331,518.735219 L502.340034,518.735219 L502.340034,521.542416 L500.279331,521.542416 Z M515.003383,542.345758 C516.332876,542.345758 517.454618,541.992077 518.368644,541.284704 C519.28267,540.577332 519.947406,539.644393 520.362872,538.485861 C520.778338,537.327329 520.986068,535.996151 520.986068,534.492288 C520.986068,532.130665 520.487516,530.23137 519.490397,528.794344 C518.493278,527.357319 516.975464,526.638817 514.936909,526.638817 C513.607417,526.638817 512.474596,526.998068 511.538412,527.716581 C510.602228,528.435094 509.918103,529.376387 509.486019,530.540488 C509.053934,531.70459 508.837894,533.038553 508.837894,534.542416 C508.837894,536.826061 509.366913,538.697508 510.424968,540.156812 C511.483022,541.616117 513.009145,542.345758 515.003383,542.345758 Z M514.853816,544 C513.20303,544 511.74892,543.582266 510.491442,542.746787 C509.233964,541.911307 508.275636,540.777856 507.616429,539.346401 C506.957223,537.914946 506.627625,536.296924 506.627625,534.492288 C506.627625,533.133241 506.818736,531.871685 507.200965,530.707584 C507.583194,529.543482 508.128832,528.535351 508.837894,527.683162 C509.546957,526.830973 510.427732,526.162599 511.480247,525.678021 C512.532761,525.193442 513.701589,524.951157 514.986765,524.951157 C516.692946,524.951157 518.171984,525.371675 519.423923,526.212725 C520.675861,527.053775 521.614801,528.18444 522.24077,529.604756 C522.866739,531.025071 523.179719,532.643093 523.179719,534.458869 C523.179719,536.285785 522.85843,537.912161 522.215842,539.338046 C521.573254,540.763932 520.614927,541.897382 519.34083,542.738432 C518.066733,543.579481 516.571077,544 514.853816,544 Z M527.23465,543.598972 L527.23465,525.285347 L529.029456,525.285347 L529.311971,528.109254 C529.965638,527.128958 530.843644,526.357544 531.946015,525.794987 C533.048385,525.232431 534.236601,524.951157 535.510698,524.951157 C537.604648,524.951157 539.14462,525.530414 540.13066,526.688946 C541.1167,527.847478 541.609712,529.696645 541.609712,532.236504 L541.609712,543.598972 L539.532391,543.598972 L539.532391,531.300771 C539.476996,529.674371 539.133549,528.504717 538.50204,527.791774 C537.870531,527.078831 536.834651,526.722365 535.394368,526.722365 C533.743581,526.722365 532.394721,527.140099 531.347746,527.975578 C530.300771,528.811058 529.644344,529.891596 529.378446,531.217224 C529.334129,531.740791 529.311971,532.28663 529.311971,532.854756 L529.311971,543.598972 L527.23465,543.598972 Z M553.824361,543.598972 L553.325804,541.476864 L561.950841,531.384319 C563.080909,530.036411 563.922908,528.863972 564.476863,527.866967 C565.030818,526.869961 565.307792,525.898034 565.307792,524.951157 C565.307792,523.369315 564.936647,522.157888 564.194348,521.316838 C563.452048,520.475788 562.344154,520.05527 560.870634,520.05527 C559.818119,520.05527 558.785009,520.214009 557.771271,520.531491 C556.757533,520.848973 555.929383,521.31405 555.286795,521.926735 L554.505722,520.305913 C555.89061,518.969145 558.039923,518.300771 560.953727,518.300771 C563.069835,518.300771 564.739985,518.885598 565.964225,520.05527 C567.188466,521.224942 567.800577,522.762201 567.800577,524.667095 C567.800577,525.948164 567.476518,527.20972 566.828391,528.451799 C566.180263,529.693879 565.113916,531.178226 563.629316,532.904884 L556.15096,541.543702 L568,541.543702 L567.867051,543.598972 L553.824361,543.598972 Z" id="Condition-2" fill="#FFFFFF"></path>
                <path d="M321.336029,16.9851552 C318.592931,8.98826411 317.0784,4.494157 316.79239,3.50269906 L312.053746,16.9851552 L321.336029,16.9851552 Z M325.801665,29 L322.428062,19.8225371 L310.922711,19.8225371 L307.432105,29 L304,29 L315.076338,0 L318.527943,0 L329.272771,29 L325.801665,29 Z M355.50107,29 L351.678954,29 L336.702497,6.22267206 L335.727467,4.87246964 C335.831471,7.61202449 335.883472,10.0580189 335.883472,12.2105263 L335.883472,29 L332.724376,29 L332.724376,0.0587044534 L336.48799,0.0587044534 L351.503448,22.8360324 L352.497979,24.1862348 C352.406975,20.0247205 352.361474,17.617862 352.361474,16.965587 L352.361474,0.0587044534 L355.50107,0.0587044534 L355.50107,29 Z M382.39239,14.5978408 C382.39239,10.553736 381.352369,7.61201999 379.272295,5.77260459 C377.192221,3.93318918 374.163159,3.01349528 370.185018,3.01349528 L365.66088,3.01349528 L365.66088,26.0452092 L370.750535,26.0452092 C374.54667,26.0452092 377.435979,25.083118 379.418549,23.1589069 C381.40112,21.2346957 382.39239,18.3810356 382.39239,14.5978408 Z M386,14.5 C386,19.2094253 384.667473,22.8034064 382.002378,25.2820513 C379.337284,27.7606962 375.619207,29 370.848038,29 L362.287277,29 L362.287277,0.0587044534 L370.282521,0.0587044534 C372.687606,0.0587044534 374.83915,0.342439808 376.737218,0.909919028 C378.635285,1.47739825 380.283069,2.33838829 381.680618,3.49291498 C383.078168,4.64744167 384.14744,6.15417424 384.888466,8.01315789 C385.629492,9.87214155 386,12.0344006 386,14.5 Z" id="AND" fill="#52B1DB"></path>
            </g>
        </g>
    </g>
</svg>